/* XPM */
static const char * pyc_logo16_xpm[] = {
"16 16 111 2",
"  	c None",
". 	c #53564C",
"+ 	c #4E514F",
"@ 	c #525252",
"# 	c #566566",
"$ 	c #405840",
"% 	c #798FA4",
"& 	c #5E5E5E",
"* 	c #565656",
"= 	c #626262",
"- 	c #444E44",
"; 	c #7A94A3",
"> 	c #A8B1AC",
", 	c #424242",
"' 	c #595959",
") 	c #7D8585",
"! 	c #FFEBAD",
"~ 	c #3F623F",
"{ 	c #5C5C5C",
"] 	c #3F613F",
"^ 	c #3B783B",
"/ 	c #656565",
"( 	c #6F6F6F",
"_ 	c #B3B4B5",
": 	c #A1A8B0",
"< 	c #ACB1B5",
"[ 	c #969696",
"} 	c #C6D5DC",
"| 	c #9DB6D2",
"1 	c #4482B4",
"2 	c #3E7BAC",
"3 	c #8DA4C0",
"4 	c #D1D1D0",
"5 	c #B3C5DA",
"6 	c #9AB2CD",
"7 	c #3F7CAD",
"8 	c #3A76A7",
"9 	c #3670A0",
"0 	c #FFFFFE",
"a 	c #4A4A4A",
"b 	c #B7BFC8",
"c 	c #ABC0D7",
"d 	c #A8BBD2",
"e 	c #A7B9CF",
"f 	c #99ADC6",
"g 	c #3671A2",
"h 	c #326C9B",
"i 	c #FEF5D3",
"j 	c #FFF1BA",
"k 	c #FFFCF5",
"l 	c #9FB49F",
"m 	c #82A5CA",
"n 	c #4584B6",
"o 	c #417EAF",
"p 	c #3C78A9",
"q 	c #3873A3",
"r 	c #336D9C",
"s 	c #336D9B",
"t 	c #FFEEAC",
"u 	c #FFE364",
"v 	c #FFF3D0",
"w 	c #B9C5B9",
"x 	c #4280B1",
"y 	c #658DB4",
"z 	c #B4BDBE",
"A 	c #B9BEBA",
"B 	c #B8BDB8",
"C 	c #DBD4B8",
"D 	c #FFE26A",
"E 	c #FFDE56",
"F 	c #FFEDBC",
"G 	c #B0B0B0",
"H 	c #6691BA",
"I 	c #3D7AAB",
"J 	c #DDD8B8",
"K 	c #FFE872",
"L 	c #FFE770",
"M 	c #FFE467",
"N 	c #FFE05D",
"O 	c #FFDC53",
"P 	c #FFD94A",
"Q 	c #FFEEC6",
"R 	c #709070",
"S 	c #B9C6D6",
"T 	c #3975A6",
"U 	c #E8DDA7",
"V 	c #FFE66D",
"W 	c #FFE363",
"X 	c #FFDE59",
"Y 	c #FFDB4E",
"Z 	c #FFD745",
"` 	c #FFD962",
" .	c #FFFAEF",
"..	c #898989",
"+.	c #BEBEBE",
"@.	c #FFEFBB",
"#.	c #FFE15F",
"$.	c #FFDF65",
"%.	c #FFE593",
"&.	c #FFE395",
"*.	c #FFFFFF",
"=.	c #F9EBC3",
"-.	c #FFDB50",
";.	c #FFD847",
">.	c #FFE08F",
",.	c #FFE5A3",
"'.	c #FEFFFF",
").	c #FFF2D5",
"!.	c #FFECC4",
"~.	c #FFEDC6",
"{.	c #FFF9ED",
". + @                           ",
"# $ % & * * * * * * =           ",
"- ; > * , , , , , , * '         ",
"  ) ! * ~ ~ ~ ~ ~ , * , {       ",
"      * ] ^ ~ ^ , , * * * /     ",
"      * , , , , ( _ : < [ /     ",
"      * ~ ~ ^ ~ } | 1 2 3 4     ",
"      * ] ] ] ^ 5 6 7 8 9 0     ",
"      * , a b c d e f g h i j k ",
"      * ~ l m n o p q r s t u v ",
"      * ] w n x y z A B C D E F ",
"      * , G H I J K L M N O P Q ",
"      * ] R S T U V W X Y Z `  .",
"      * , , ..+.@.#.$.%.&.*.*.  ",
"      & * * * * =.-.;.>.,.'.    ",
"                  ).!.~.{.      "};
