/* XPM */
static const char * python_logo_xpm[] = {
"32 32 637 2",
"  	c None",
". 	c #E9ECEF",
"+ 	c #E9ECF0",
"@ 	c #E9EAEC",
"# 	c #ECEEF1",
"$ 	c #BBC8D8",
"% 	c #A9C0D7",
"& 	c #A2BED8",
"* 	c #AFCBE3",
"= 	c #B9D2E7",
"- 	c #BED5E9",
"; 	c #BCD4E8",
"> 	c #B3CDE4",
", 	c #A6C1DA",
"' 	c #A4BCD3",
") 	c #B7C5D4",
"! 	c #EBECEF",
"~ 	c #E3E6EB",
"{ 	c #6D99C3",
"] 	c #9BC4E7",
"^ 	c #92BBDF",
"/ 	c #9DC6E9",
"( 	c #9EC7E9",
"_ 	c #9FC7E9",
": 	c #9EC6E8",
"< 	c #9EC6E7",
"[ 	c #9EC5E6",
"} 	c #7AA0C4",
"| 	c #DEE1E5",
"1 	c #96A6C0",
"2 	c #5690C4",
"3 	c #B8C7DA",
"4 	c #F1F5F8",
"5 	c #B3C4DA",
"6 	c #70ABDD",
"7 	c #7AB6E9",
"8 	c #7BB6E8",
"9 	c #7BB5E7",
"0 	c #7BB5E6",
"a 	c #7AB3E4",
"b 	c #79B2E2",
"c 	c #5F7EA1",
"d 	c #7C94B6",
"e 	c #1E66A0",
"f 	c #EFF2F6",
"g 	c #FFFFFF",
"h 	c #EBEEF3",
"i 	c #2E6FA7",
"j 	c #5394CA",
"k 	c #5D9ED4",
"l 	c #60A0D5",
"m 	c #61A0D4",
"n 	c #619FD2",
"o 	c #619ED1",
"p 	c #609CCE",
"q 	c #5F9ACC",
"r 	c #2F6695",
"s 	c #E5E6EA",
"t 	c #7D96B9",
"u 	c #3272A8",
"v 	c #AFC0D4",
"w 	c #E7EBF1",
"x 	c #A6B8CE",
"y 	c #3070A5",
"z 	c #3978AD",
"A 	c #3776AB",
"B 	c #3776AA",
"C 	c #3976AA",
"D 	c #3B77AA",
"E 	c #3B77A8",
"F 	c #3B74A5",
"G 	c #306999",
"H 	c #205888",
"I 	c #E2E5E8",
"J 	c #85A2C2",
"K 	c #5C90BC",
"L 	c #598CB8",
"M 	c #6492BA",
"N 	c #5286B3",
"O 	c #588CB8",
"P 	c #558AB7",
"Q 	c #4A82B1",
"R 	c #3B77A9",
"S 	c #3773A6",
"T 	c #3672A3",
"U 	c #346FA0",
"V 	c #316A9A",
"W 	c #2A6292",
"X 	c #225A88",
"Y 	c #B0BFD2",
"Z 	c #9CB2CB",
"` 	c #9BB1C9",
" .	c #9CB2C9",
"..	c #9DB2C9",
"+.	c #9CB1C8",
"@.	c #839EBB",
"#.	c #3C75A5",
"$.	c #3671A2",
"%.	c #3671A1",
"&.	c #356F9F",
"*.	c #326B9A",
"=.	c #2D6593",
"-.	c #255C8A",
";.	c #D2D6DF",
">.	c #C9CFD9",
",.	c #C9CFDA",
"'.	c #C9CFD8",
").	c #C9CFD7",
"!.	c #A5AFBF",
"~.	c #2D6899",
"{.	c #336D9E",
"].	c #366E9D",
"^.	c #346B9A",
"/.	c #306795",
"(.	c #2B618E",
"_.	c #E2E5E9",
":.	c #E8E2D0",
"<.	c #E8E0C9",
"[.	c #EBE3CF",
"}.	c #B3BCCC",
"|.	c #698BB1",
"1.	c #B4C9DC",
"2.	c #C1D5E6",
"3.	c #BFD5E8",
"4.	c #B9D2E8",
"5.	c #B1CEE7",
"6.	c #A8CAE7",
"7.	c #9FC5E7",
"8.	c #95C0E6",
"9.	c #8ABBE5",
"0.	c #81B5E2",
"a.	c #77AFDE",
"b.	c #6DA6D7",
"c.	c #4C84B3",
"d.	c #336C9B",
"e.	c #376E9C",
"f.	c #366D9A",
"g.	c #346996",
"h.	c #306592",
"i.	c #E3E5E9",
"j.	c #D9C882",
"k.	c #F4E8B2",
"l.	c #F5E8AF",
"m.	c #F4E5A9",
"n.	c #E2CC7C",
"o.	c #E7DFCF",
"p.	c #B1BBCA",
"q.	c #1D629C",
"r.	c #9CC0E1",
"s.	c #A0C7E9",
"t.	c #96C3E9",
"u.	c #8CBEE9",
"v.	c #81B8E7",
"w.	c #78B2E4",
"x.	c #6EABDF",
"y.	c #66A4D8",
"z.	c #5F9CD0",
"A.	c #5994C7",
"B.	c #518CBE",
"C.	c #4A84B5",
"D.	c #437CAC",
"E.	c #37709E",
"F.	c #3B719E",
"G.	c #4074A0",
"H.	c #4476A1",
"I.	c #42749E",
"J.	c #3B6E99",
"K.	c #356994",
"L.	c #D4BE6B",
"M.	c #F6E38B",
"N.	c #F9E48B",
"O.	c #F9E287",
"P.	c #F7DF81",
"Q.	c #D6B649",
"R.	c #2A659C",
"S.	c #1E629C",
"T.	c #63A3D8",
"U.	c #62A4DB",
"V.	c #5A9CD3",
"W.	c #4E8EC4",
"X.	c #4585BA",
"Y.	c #417FB4",
"Z.	c #3F7CAF",
"`.	c #3F7BAD",
" +	c #3F79AA",
".+	c #3E77A7",
"++	c #4077A6",
"@+	c #4178A5",
"#+	c #4479A5",
"$+	c #497BA6",
"%+	c #5080A8",
"&+	c #5784AA",
"*+	c #5B86AB",
"=+	c #5783A8",
"-+	c #4978A0",
";+	c #3A6C97",
">+	c #D3BB66",
",+	c #EDCE4C",
"'+	c #F9D957",
")+	c #F9D854",
"!+	c #F6D350",
"~+	c #DEB833",
"{+	c #DCCDAF",
"]+	c #CACFDA",
"^+	c #1D629B",
"/+	c #21659E",
"(+	c #2E70A8",
"_+	c #387AB1",
":+	c #3678AE",
"<+	c #3778AD",
"[+	c #3978AC",
"}+	c #4880AF",
"|+	c #4F84B1",
"1+	c #5487B1",
"2+	c #5788B1",
"3+	c #5888B0",
"4+	c #5988B0",
"5+	c #5C89AF",
"6+	c #618CB0",
"7+	c #6890B3",
"8+	c #7196B6",
"9+	c #7599B7",
"0+	c #678EB0",
"a+	c #537FA4",
"b+	c #3F6F99",
"c+	c #E7E9EB",
"d+	c #D7BB53",
"e+	c #E6C53B",
"f+	c #F0CD43",
"g+	c #F0CC42",
"h+	c #E9C33A",
"i+	c #DAB32A",
"j+	c #D2B46E",
"k+	c #A1AEC3",
"l+	c #22669E",
"m+	c #2B6EA6",
"n+	c #3375AC",
"o+	c #3778AE",
"p+	c #417CAE",
"q+	c #5086B2",
"r+	c #5D8EB7",
"s+	c #6694B9",
"t+	c #6C97BB",
"u+	c #6F98BB",
"v+	c #7199BA",
"w+	c #7299BA",
"x+	c #759BBA",
"y+	c #7A9EBC",
"z+	c #80A1BE",
"A+	c #83A4BF",
"B+	c #7E9FBB",
"C+	c #698FB0",
"D+	c #537EA3",
"E+	c #748CA7",
"F+	c #EEEAE0",
"G+	c #E3C237",
"H+	c #EDCA40",
"I+	c #F2CD44",
"J+	c #F2CC43",
"K+	c #ECC43B",
"L+	c #E1B830",
"M+	c #D5AB1D",
"N+	c #92A6C2",
"O+	c #2B6EA5",
"P+	c #3274AB",
"Q+	c #3677AE",
"R+	c #3777AD",
"S+	c #3877AB",
"T+	c #3E7AAC",
"U+	c #4E84B1",
"V+	c #608FB8",
"W+	c #6D98BC",
"X+	c #729BBD",
"Y+	c #7199BC",
"Z+	c #7098BA",
"`+	c #7098B9",
" @	c #7097B8",
".@	c #7197B7",
"+@	c #7297B6",
"@@	c #7296B6",
"#@	c #7095B4",
"$@	c #688FAF",
"%@	c #5A84A7",
"&@	c #6182A2",
"*@	c #E5E7E9",
"=@	c #DEC783",
"-@	c #EBC83E",
";@	c #F2CD43",
">@	c #F5CE45",
",@	c #F4CC43",
"'@	c #EFC63E",
")@	c #E8BD35",
"!@	c #E0B42C",
"~@	c #F2ECE2",
"{@	c #93A9C6",
"]@	c #3173AA",
"^@	c #3576AC",
"/@	c #3976A9",
"(@	c #427CAC",
"_@	c #5588B3",
":@	c #6290B7",
"<@	c #6491B7",
"[@	c #84A0BB",
"}@	c #B0BECF",
"|@	c #B5C2D0",
"1@	c #B5C1CF",
"2@	c #B5C1CE",
"3@	c #B5C0CE",
"4@	c #B5C0CD",
"5@	c #B3BFCB",
"6@	c #C8CFD8",
"7@	c #EBEAE8",
"8@	c #DECB98",
"9@	c #EDD78F",
"0@	c #F3D677",
"a@	c #F5CF46",
"b@	c #F6CF46",
"c@	c #F5CC44",
"d@	c #F1C73F",
"e@	c #ECC038",
"f@	c #E5B730",
"g@	c #F4EAD9",
"h@	c #94AAC7",
"i@	c #3475AB",
"j@	c #3676AB",
"k@	c #3775A9",
"l@	c #3975A7",
"m@	c #417AA9",
"n@	c #4F83AE",
"o@	c #6A90B3",
"p@	c #D6DBE2",
"q@	c #F0EDE1",
"r@	c #E0D8B6",
"s@	c #E3DBB9",
"t@	c #E6DFBE",
"u@	c #E7DFBE",
"v@	c #E7DFBD",
"w@	c #E6DDBC",
"x@	c #E5DCBB",
"y@	c #E4DABA",
"z@	c #E5DAB9",
"A@	c #E6D8AD",
"B@	c #E7D592",
"C@	c #F6E7AE",
"D@	c #FBEBB4",
"E@	c #F6D466",
"F@	c #F6CE46",
"G@	c #F7CD45",
"H@	c #F6CB43",
"I@	c #F3C63E",
"J@	c #EDBF38",
"K@	c #E7B831",
"L@	c #EDE1CE",
"M@	c #94A9C6",
"N@	c #3474A9",
"O@	c #3875A8",
"P@	c #3874A6",
"Q@	c #3874A5",
"R@	c #3B74A4",
"S@	c #4A7BA6",
"T@	c #E5E8EC",
"U@	c #D7CC9C",
"V@	c #DAC64F",
"W@	c #F1E5A0",
"X@	c #F8EEB2",
"Y@	c #F9EEAF",
"Z@	c #FAEEAC",
"`@	c #FAEDA8",
" #	c #F9EAA4",
".#	c #F7E79E",
"+#	c #F6E599",
"@#	c #F6E496",
"##	c #F7E393",
"$#	c #F8E391",
"%#	c #FAE38F",
"&#	c #F9DC7B",
"*#	c #F5CD44",
"=#	c #F6CD44",
"-#	c #F5C941",
";#	c #F3C53E",
">#	c #EEBF37",
",#	c #E7B730",
"'#	c #F4EADC",
")#	c #A2B2C8",
"!#	c #3574A7",
"~#	c #3E78A9",
"{#	c #3872A1",
"]#	c #A6B3C4",
"^#	c #E4DEC5",
"/#	c #D9C437",
"(#	c #F2E078",
"_#	c #FAEA89",
":#	c #FBEA85",
"<#	c #FBE882",
"[#	c #FBE77E",
"}#	c #FBE57A",
"|#	c #FBE376",
"1#	c #FAE070",
"2#	c #F9DE6C",
"3#	c #FADD6A",
"4#	c #FADC67",
"5#	c #FBDB64",
"6#	c #F9D65C",
"7#	c #F5CE46",
"8#	c #F6CC44",
"9#	c #F5C73F",
"0#	c #F3C43C",
"a#	c #EDBD36",
"b#	c #E6B52B",
"c#	c #C8CFDA",
"d#	c #3A75A7",
"e#	c #487FAD",
"f#	c #5285B0",
"g#	c #5385AF",
"h#	c #4B7FAA",
"i#	c #4076A3",
"j#	c #D2D7DE",
"k#	c #DED08D",
"l#	c #E6D043",
"m#	c #F7E159",
"n#	c #F9E25A",
"o#	c #F9E057",
"p#	c #F8DE54",
"q#	c #F7DB52",
"r#	c #F6D94F",
"s#	c #F5D74C",
"t#	c #F6D64B",
"u#	c #F6D44A",
"v#	c #F6D349",
"w#	c #F6D148",
"x#	c #F5CA44",
"y#	c #F5CA4A",
"z#	c #F4C748",
"A#	c #F1C13C",
"B#	c #ECBA34",
"C#	c #E1BA6A",
"D#	c #3E77A6",
"E#	c #5788B2",
"F#	c #6793B8",
"G#	c #6B95B8",
"H#	c #5F8CB2",
"I#	c #4F7FA8",
"J#	c #D5D9DF",
"K#	c #E9D885",
"L#	c #EED64A",
"M#	c #F0D84B",
"N#	c #EFD549",
"O#	c #EED348",
"P#	c #EED247",
"Q#	c #EFD146",
"R#	c #F2D349",
"S#	c #F5D54C",
"T#	c #F7D54E",
"U#	c #F7D550",
"V#	c #F8D452",
"W#	c #F7D352",
"X#	c #F7D252",
"Y#	c #F7D051",
"Z#	c #F7CF52",
"`#	c #F6CE55",
" $	c #F6CF5E",
".$	c #F6D26E",
"+$	c #F4CF6A",
"@$	c #EFC34B",
"#$	c #EAB832",
"$$	c #EAD6B9",
"%$	c #A2B1C5",
"&$	c #5988B1",
"*$	c #6F98BA",
"=$	c #7A9FBE",
"-$	c #6D95B7",
";$	c #5986AC",
">$	c #D6DADF",
",$	c #F1DF88",
"'$	c #F0D74B",
")$	c #F0D348",
"!$	c #F4D54D",
"~$	c #F7D95A",
"{$	c #F9DB65",
"]$	c #FADC6C",
"^$	c #FADD72",
"/$	c #F9DD76",
"($	c #F9DC78",
"_$	c #F9DB78",
":$	c #F8D978",
"<$	c #F8D97A",
"[$	c #F7D87E",
"}$	c #F7DA86",
"|$	c #F6DA8C",
"1$	c #F4D580",
"2$	c #EEC353",
"3$	c #E6B747",
"4$	c #889FB8",
"5$	c #5E8BB1",
"6$	c #6791B4",
"7$	c #648EB1",
"8$	c #5683A9",
"9$	c #F4E189",
"0$	c #EFD54A",
"a$	c #EFD247",
"b$	c #F2D44A",
"c$	c #F5D54B",
"d$	c #F4D555",
"e$	c #F5DA6C",
"f$	c #F7DD7B",
"g$	c #FAE083",
"h$	c #FAE188",
"i$	c #FAE18B",
"j$	c #FAE08D",
"k$	c #F9DF8C",
"l$	c #F9DE8C",
"m$	c #F8DC8B",
"n$	c #F7DA89",
"o$	c #F5D887",
"p$	c #F4D581",
"q$	c #F0CB6A",
"r$	c #EABD49",
"s$	c #EFE2D1",
"t$	c #DBDFE4",
"u$	c #CDD4DD",
"v$	c #CCD3DC",
"w$	c #F4E088",
"x$	c #F3D54A",
"y$	c #F7D84E",
"z$	c #F5D44A",
"A$	c #F2D14D",
"B$	c #ECD37D",
"C$	c #F7ECD0",
"D$	c #F7EBD0",
"E$	c #F7EAD0",
"F$	c #F6E9D0",
"G$	c #F6E9CF",
"H$	c #F5E8CE",
"I$	c #F2E4CD",
"J$	c #F3DE88",
"K$	c #EED146",
"L$	c #F0D247",
"M$	c #F6D64C",
"N$	c #F9D84E",
"O$	c #F0CC43",
"P$	c #E9CB69",
"Q$	c #EAD8A8",
"R$	c #E9D8AA",
"S$	c #E9D7AB",
"T$	c #E9D7AD",
"U$	c #E9D7AF",
"V$	c #E9D7B0",
"W$	c #E8D7B1",
"X$	c #F6F2EB",
"Y$	c #F4DD87",
"Z$	c #EED045",
"`$	c #F2D248",
" %	c #F8D74D",
".%	c #F9D74D",
"+%	c #F7D44A",
"@%	c #F1CB42",
"#%	c #EFCB51",
"$%	c #F7D66A",
"%%	c #F9D873",
"&%	c #F9D97A",
"*%	c #F8D97F",
"=%	c #F8DA85",
"-%	c #F8DB8C",
";%	c #F6D98D",
">%	c #F4EDE2",
",%	c #F6DF88",
"'%	c #F4D550",
")%	c #F6D858",
"!%	c #F9D959",
"~%	c #F9D756",
"{%	c #F4CE49",
"]%	c #EEC63F",
"^%	c #EBC139",
"/%	c #ECC139",
"(%	c #EDC458",
"_%	c #F7EAD2",
":%	c #F7E7CB",
"<%	c #F2C551",
"[%	c #EEBF44",
"}%	c #F0D989",
"|%	c #F6DB68",
"1%	c #F9E07D",
"2%	c #FAE07F",
"3%	c #FADE7B",
"4%	c #F9DC75",
"5%	c #F8D76B",
"6%	c #F3CF5B",
"7%	c #EFC648",
"8%	c #EDC03A",
"9%	c #F4DCB1",
"0%	c #EFCF95",
"a%	c #EBB832",
"b%	c #F4EDE4",
"c%	c #F1E4BF",
"d%	c #F5DA72",
"e%	c #F8E393",
"f%	c #F9E496",
"g%	c #FAE496",
"h%	c #FAE394",
"i%	c #FAE08E",
"j%	c #F8DA7D",
"k%	c #F4CF63",
"l%	c #EFC54A",
"m%	c #ECCA7E",
"n%	c #FDF9F4",
"o%	c #FBF6EE",
"p%	c #E5BB60",
"q%	c #E9BD5F",
"r%	c #ECDAA4",
"s%	c #F5DD85",
"t%	c #F7E193",
"u%	c #F8E195",
"v%	c #F9E195",
"w%	c #F9E093",
"x%	c #F7D77B",
"y%	c #F5CF64",
"z%	c #EFC44E",
"A%	c #EABF4E",
"B%	c #E7BB47",
"C%	c #E4BB5C",
"D%	c #F3ECE1",
"E%	c #F3ECDB",
"F%	c #ECD9A4",
"G%	c #F1D785",
"H%	c #F6DB87",
"I%	c #F7DC8A",
"J%	c #F8DC89",
"K%	c #F8D982",
"L%	c #F7D474",
"M%	c #F4CD62",
"N%	c #ECCA7D",
"O%	c #F1DFC0",
"P%	c #F5F0E5",
"Q%	c #F5EBD7",
"R%	c #F3E7D0",
"S%	c #F2E6D0",
"T%	c #F5EDDE",
"                            . + + @                             ",
"                  # $ % & * = - ; > , ' ) !                     ",
"                ~ { ] ^ / ( _ _ _ : : < [ } |                   ",
"                1 2 3 4 5 6 7 7 8 8 9 0 a b c                   ",
"                d e f g h i j k l m n o p q r s                 ",
"                t u v w x y z A B C D E F G H I                 ",
"                J K L M N O P Q R S T U V W X I                 ",
"                Y Z Z `  ...+.@.#.$.%.&.*.=.-.I                 ",
"        ;.>.,.>.>.>.'.'.'.).).!.~.{.&.].^./.(._.:.<.<.[.        ",
"    }.|.1.2.3.4.5.6.7.8.9.0.a.b.c.d.].e.f.g.h.i.j.k.l.m.n.o.    ",
"  p.q.r.s.t.u.v.w.x.y.z.A.B.C.D.E.F.G.H.I.J.K.i.L.M.N.O.P.Q.    ",
"  R.S.T.U.V.W.X.Y.Z.`. +.+++@+#+$+%+&+*+=+-+;+i.>+,+'+)+!+~+{+  ",
"]+^+/+(+_+:+<+[+`.}+|+1+2+3+4+5+6+7+8+9+0+a+b+c+d+e+f+g+h+i+j+  ",
"k+l+m+n+o+<+[+p+q+r+s+t+u+v+w+x+y+z+A+B+C+D+E+F+G+H+I+J+K+L+M+  ",
"N+O+P+Q+R+S+T+U+V+W+X+Y+Z+`+ @.@+@@@#@$@%@&@*@=@-@;@>@,@'@)@!@~@",
"{@]@^@R+A /@(@_@:@<@[@}@|@1@1@2@2@3@4@5@6@7@8@9@0@a@b@c@d@e@f@g@",
"h@i@j@B k@l@m@n@o@p@q@r@s@t@u@v@w@x@y@z@A@B@C@D@E@F@G@H@I@J@K@L@",
"M@N@B O@P@Q@R@S@T@U@V@W@X@Y@Z@`@ #.#+#@###$#%#&#*#=#H@-#;#>#,#'#",
")#!#R ~#.+R@{#]#^#/#(#_#:#<#[#}#|#1#2#3#4#5#6#7#8#H@-#9#0#a#b#  ",
"c#d#e#f#g#h#i#j#k#l#m#n#o#p#q#r#s#t#u#v#w#b@F@8#H@x#y#z#A#B#C#  ",
"  D#E#F#G#H#I#J#K#L#M#N#O#P#Q#R#S#T#U#V#W#X#Y#Z#`# $.$+$@$#$$$  ",
"  %$&$*$=$-$;$>$,$'$N#O#P#)$!$~${$]$^$/$($_$:$<$[$}$|$1$2$3$    ",
"    4$5$6$7$8$>$9$0$O#a$b$c$d$e$f$g$h$i$j$k$l$m$n$o$p$q$r$s$    ",
"      t$u$u$v$  w$O#a$x$y$z$A$B$C$C$C$D$D$D$E$E$F$G$H$I$        ",
"                J$K$L$M$N$u#O$P$Q$R$S$T$U$V$W$X$                ",
"                Y$Z$`$ %.%+%@%#%$%%%&%*%=%-%;%>%                ",
"                ,%'%)%!%~%V#{%]%^%/%(%_%:%<%[%>%                ",
"                }%|%1%2%3%4%5%6%7%8%9%g g 0%a%b%                ",
"                c%d%e%f%g%h%i%j%k%l%m%n%o%p%q%                  ",
"                  r%s%t%u%v%w%l$x%y%z%A%B%C%D%                  ",
"                    E%F%G%H%I%J%K%L%M%N%O%                      ",
"                          P%Q%R%S%T%                            "};
