/* XPM */
static const char * py_logo16_xpm[] = {
"16 16 109 2",
"  	c None",
". 	c #E7E6E5",
"+ 	c #D9DADA",
"@ 	c #D3D3D3",
"# 	c #E3E5E8",
"$ 	c #EBEBEB",
"% 	c #B8C6D5",
"& 	c #999999",
"* 	c #BEBEBE",
"= 	c #868686",
"- 	c #E7E7E7",
"; 	c #C2CDDB",
"> 	c #A9B1AC",
", 	c #F6F6F6",
"' 	c #C3C3C3",
") 	c #CED0D2",
"! 	c #FFEBAC",
"~ 	c #EAEAEA",
"{ 	c #DCDCDC",
"] 	c #BFBFBF",
"^ 	c #656565",
"/ 	c #F7F7F7",
"( 	c #F8F9F9",
"_ 	c #E5EAEF",
": 	c #EEF1F4",
"< 	c #F9F8F8",
"[ 	c #D0D9E5",
"} 	c #9DB6D2",
"| 	c #4482B4",
"1 	c #3F7CAD",
"2 	c #8CA4C0",
"3 	c #D0D0D1",
"4 	c #DDDDDC",
"5 	c #B3C5DA",
"6 	c #9AB2CD",
"7 	c #3B77A7",
"8 	c #3671A1",
"9 	c #FFFFFF",
"0 	c #E2E8F0",
"a 	c #ABBFD7",
"b 	c #A8BBD2",
"c 	c #A7B9CF",
"d 	c #99ADC6",
"e 	c #3772A2",
"f 	c #326C9B",
"g 	c #FEF5D3",
"h 	c #FFF1BA",
"i 	c #FFFCF5",
"j 	c #E6E6E6",
"k 	c #81A5C9",
"l 	c #4584B6",
"m 	c #417FB0",
"n 	c #3C78A9",
"o 	c #336D9C",
"p 	c #346C9A",
"q 	c #FFEEAB",
"r 	c #FFE364",
"s 	c #FFF3D0",
"t 	c #EEEEEE",
"u 	c #4585B7",
"v 	c #417FB1",
"w 	c #658DB4",
"x 	c #B5BDBE",
"y 	c #B9BFBB",
"z 	c #B8BDB9",
"A 	c #DBD5B8",
"B 	c #FFE26A",
"C 	c #FFDE56",
"D 	c #FFEDBC",
"E 	c #FAFAFA",
"F 	c #6691BA",
"G 	c #3D7AAB",
"H 	c #DDD8B8",
"I 	c #FFE872",
"J 	c #FFE770",
"K 	c #FFE467",
"L 	c #FFE05D",
"M 	c #FFDC53",
"N 	c #FFD94A",
"O 	c #FFEEC6",
"P 	c #E4E4E4",
"Q 	c #BECADA",
"R 	c #3875A5",
"S 	c #E8DDA7",
"T 	c #FFE66D",
"U 	c #FFE363",
"V 	c #FFDE59",
"W 	c #FFDB4E",
"X 	c #FFD745",
"Y 	c #FFD962",
"Z 	c #FFFAEF",
"` 	c #F8F8F8",
" .	c #FBFBFB",
"..	c #FFEFBB",
"+.	c #FFE15F",
"@.	c #FFDF65",
"#.	c #FFE593",
"$.	c #FFE395",
"%.	c #9A9A9A",
"&.	c #C0C0C0",
"*.	c #F9EBC3",
"=.	c #FFDB50",
"-.	c #FFD847",
";.	c #FFE08F",
">.	c #FFE5A3",
",.	c #FFF2D5",
"'.	c #FFECC4",
").	c #FFEDC6",
"!.	c #FFF9ED",
". + @                           ",
"# $ % & * * * * * * =           ",
"- ; > * , , , , , , * '         ",
"  ) ! * ~ { { { ~ , * , ]       ",
"      * ~ { { { ~ , * * * ^     ",
"      * , , , , / ( _ : < ^     ",
"      * ~ { { { [ } | 1 2 3     ",
"      * ~ { 4 4 5 6 1 7 8 9     ",
"      * , , 0 a b c d e f g h i ",
"      * ~ j k l m n e o p q r s ",
"      * ~ t u v w x y z A B C D ",
"      * , E F G H I J K L M N O ",
"      * ~ P Q R S T U V W X Y Z ",
"      * , , `  ...+.@.#.$.9 9   ",
"      %.&.&.&.&.*.=.-.;.>.9     ",
"                  ,.'.).!.      "};
