/* XPM */
static const char * replace_xpm[] = {
"16 16 60 1",
" 	c #FFFFFF",
".	c #EAE2D7",
"+	c #C1CEE1",
"@	c #A37777",
"#	c #917777",
"$	c #EFFFFF",
"%	c #FFEFD3",
"&	c #77A3C1",
"*	c #D3C1A3",
"=	c #B1C8E0",
"-	c #C8B188",
";	c #C1D3EF",
">	c #5F88B1",
",	c #FFFFF7",
"'	c #885F64",
")	c #BCBCBC",
"!	c #896049",
"~	c #D3EFFF",
"{	c #EFD3C1",
"]	c #6CA3C1",
"^	c #D8CBB1",
"/	c #A3C1D3",
"(	c #B3B3B3",
"_	c #BDBDBD",
":	c #EBEBEB",
"<	c #ADADAD",
"[	c #EAEAEA",
"}	c #A4A4A4",
"|	c #F0F0F0",
"1	c #E4E4E4",
"2	c #FEFEFE",
"3	c #DCDCDC",
"4	c #F5F5F5",
"5	c #B2B2B2",
"6	c #7F7F7F",
"7	c #F4F4F4",
"8	c #A8A8A8",
"9	c #E7E7E7",
"0	c #B0B0B0",
"a	c #F9F9F9",
"b	c #EED2C0",
"c	c #608991",
"d	c #787E8E",
"e	c #EAF7FF",
"f	c #A1A1A1",
"g	c #D1D1D1",
"h	c #C6C6C6",
"i	c #EED1BF",
"j	c #85BCC6",
"k	c #BFA168",
"l	c #C3D8F7",
"m	c #F8F8F8",
"n	c #C4C4C4",
"o	c #645A7E",
"p	c #D8BB9C",
"q	c #88B1C8",
"r	c #DBC7A5",
"s	c #99B5D0",
"t	c #F7EAE2",
"u	c #BCC1CE",
"  .+            ",
"  @#$           ",
" %&*=           ",
" -;%>           ",
",'))!~          ",
"{]  ^/          ",
"                ",
"   (_           ",
"  :<[}|12       ",
"   3<4561       ",
"    78920a bc)de",
"     [fg7h ij kl",
"      m[n5 ic)o$",
"           ij pq",
"           ij rs",
"           t))u "};
