/* XPM */
static const char * replaceall_xpm[] = {
"16 16 57 1",
" 	c None",
".	c #FFFFFF",
"+	c #F7E0C8",
"@	c #3B3349",
"#	c #D3EFFF",
"$	c #FFFFEF",
"%	c #AA9399",
"&	c #AFBCBC",
"*	c #A399A3",
"=	c #E2EAF7",
"-	c #C8B190",
";	c #BEBEC1",
">	c #A3C1D3",
",	c #DBC7A5",
"'	c #A5C7DB",
")	c #FFFFF7",
"!	c #8B708B",
"~	c #F7FFE6",
"{	c #6770A3",
"]	c #BFA168",
"^	c #C6DEFF",
"/	c #EFD3C1",
"(	c #4B758C",
"_	c #BCBCBC",
":	c #754B28",
"<	c #C8E0F7",
"[	c #C3AF78",
"}	c #C3D8F7",
"|	c #C1A370",
"1	c #88B1C8",
"2	c #EFE5CE",
"3	c #7E8EA8",
"4	c #F7FFFF",
"5	c #EFE5E1",
"6	c #CEC3C7",
"7	c #C3C7D7",
"8	c #EAE2D7",
"9	c #BCC1CE",
"0	c #898989",
"a	c #E1E1E1",
"b	c #D7E2EA",
"c	c #C1CEE1",
"d	c #DEC6BC",
"e	c #A1BFD1",
"f	c #A88E78",
"g	c #C7DBEF",
"h	c #FFE6CC",
"i	c #5F94BD",
"j	c #FFEED1",
"k	c #6394BD",
"l	c #758C99",
"m	c #E1E5EF",
"n	c #EAD0B5",
"o	c #BCBCAF",
"p	c #9993AA",
"q	c #EFFFFF",
"r	c #BDC7D7",
".+@#.$%&*=......",
".-;>.,'.........",
")!~{.]^.........",
"/(_:<[}.........",
"|<./12345=......",
"64.$7.8_9.......",
"................",
"...00...........",
"...__...........",
"...__...........",
".._aa0.5__b.5__c",
"..._._.de)fgde..",
"...__..de.hide..",
"....a..de.jkdl_m",
".......de.n>de..",
".......dlopqdl_r"};
