/* XPM */
static const char * mainframeicon_xpm[] = {
"32 32 680 2",
"  	c #1F829B",
". 	c #59A0B1",
"+ 	c #59A1B1",
"@ 	c #59A1B2",
"# 	c #58A0B1",
"$ 	c #59A1B3",
"% 	c #59A2B3",
"& 	c #81B5C0",
"* 	c #81B5C1",
"= 	c #82B6C2",
"- 	c #82B6C1",
"; 	c #83B6C1",
"> 	c #83B6C2",
", 	c #83B8C3",
"' 	c #83B7C2",
") 	c #7DB4C0",
"! 	c #79B2BF",
"~ 	c #7BB3C0",
"{ 	c #82B7C3",
"] 	c #83B8C4",
"^ 	c #81B9C4",
"/ 	c #82B9C4",
"( 	c #7AB2BE",
"_ 	c #7BB2BE",
": 	c #7BB3BF",
"< 	c #7CB3BF",
"[ 	c #7CB4C0",
"} 	c #7DB3BF",
"| 	c #74AFBC",
"1 	c #98C3CD",
"2 	c #BCD8DF",
"3 	c #A9CED6",
"4 	c #79B4C1",
"5 	c #7CB5C2",
"6 	c #7EB7C3",
"7 	c #7BB5C1",
"8 	c #75AFBC",
"9 	c #9CC5CF",
"0 	c #D8E7EB",
"a 	c #A2CAD4",
"b 	c #BED8DD",
"c 	c #B8D0D5",
"d 	c #64A0AE",
"e 	c #6BA8B6",
"f 	c #7DB6C1",
"g 	c #7BB2BF",
"h 	c #76B0BD",
"i 	c #D1E3E7",
"j 	c #90C0CB",
"k 	c #4F91A2",
"l 	c #367A8D",
"m 	c #7DA7B1",
"n 	c #98B4BC",
"o 	c #418397",
"p 	c #5190A2",
"q 	c #78B3C1",
"r 	c #7DB7C3",
"s 	c #79B4C0",
"t 	c #73B1BD",
"u 	c #71B0BD",
"v 	c #74B1BE",
"w 	c #7AB3BE",
"x 	c #79B3BE",
"y 	c #7BB4BE",
"z 	c #7CB4BF",
"A 	c #7BB3BE",
"B 	c #77B0BC",
"C 	c #8EBDC7",
"D 	c #CDE2E5",
"E 	c #5695A6",
"F 	c #3F7F92",
"G 	c #74AEBB",
"H 	c #65A7B6",
"I 	c #ADCAD2",
"J 	c #BAD8DE",
"K 	c #448A9F",
"L 	c #498EA1",
"M 	c #84BAC6",
"N 	c #A8CED6",
"O 	c #BEDBE0",
"P 	c #C2DDE2",
"Q 	c #A0CAD2",
"R 	c #75B1BE",
"S 	c #7CB4C1",
"T 	c #7BB5C0",
"U 	c #79B3BF",
"V 	c #7DB6C2",
"W 	c #72ADBA",
"X 	c #A3CAD1",
"Y 	c #B7D5DB",
"Z 	c #387E92",
"` 	c #72ACB9",
" .	c #86BEC9",
"..	c #6AA7B7",
"+.	c #599AAC",
"@.	c #E0EDED",
"#.	c #8CBEC7",
"$.	c #4C8EA4",
"%.	c #A8C9D2",
"&.	c #D2E7EA",
"*.	c #B9D8DE",
"=.	c #9AC7D0",
"-.	c #D5E7EA",
";.	c #A2CBD3",
">.	c #649FAD",
",.	c #4C8996",
"'.	c #4A8694",
").	c #54909E",
"!.	c #72ABB9",
"~.	c #73AEBC",
"{.	c #AFD2D8",
"].	c #A0C4CD",
"^.	c #3C8197",
"/.	c #70ACBB",
"(.	c #6CA9B7",
"_.	c #5495A8",
":.	c #428AA1",
"<.	c #7EB2C0",
"[.	c #D8E6E8",
"}.	c #A3C4D2",
"|.	c #87B5C5",
"1.	c #83BAC5",
"2.	c #6DAEBB",
"3.	c #69AABA",
"4.	c #60A5B6",
"5.	c #8EC0CB",
"6.	c #C9E1E6",
"7.	c #74B1BF",
"8.	c #7BB4C1",
"9.	c #7FB7C2",
"0.	c #5C97A4",
"a.	c #417D8E",
"b.	c #6CA6B3",
"c.	c #66A0AD",
"d.	c #5E9AA9",
"e.	c #3A7A8B",
"f.	c #5F9FAF",
"g.	c #B2D4DA",
"h.	c #98BFC9",
"i.	c #347E95",
"j.	c #66A4B3",
"k.	c #62A0B2",
"l.	c #468EA5",
"m.	c #599BAE",
"n.	c #A0C3CE",
"o.	c #E2EAEE",
"p.	c #69A6BB",
"q.	c #3F8DA8",
"r.	c #579FB4",
"s.	c #3A8FAD",
"t.	c #3C8EAB",
"u.	c #388AA8",
"v.	c #5A9AB2",
"w.	c #9BBEC9",
"x.	c #6CA9B8",
"y.	c #73ABB7",
"z.	c #4D8897",
"A.	c #67A4B2",
"B.	c #5E9DAC",
"C.	c #6CA3B2",
"D.	c #8DB9C4",
"E.	c #8DB5BE",
"F.	c #7BA7B3",
"G.	c #D3E7E9",
"H.	c #BCD7DC",
"I.	c #5A95A9",
"J.	c #88BCC7",
"K.	c #7EB8C3",
"L.	c #79B0C0",
"M.	c #A9C9D4",
"N.	c #9CC6CE",
"O.	c #A5CDD4",
"P.	c #94C3D0",
"Q.	c #2180A2",
"R.	c #3A8EAD",
"S.	c #4D9AB3",
"T.	c #4E99B2",
"U.	c #4392AB",
"V.	c #87B6C5",
"W.	c #7DA9B9",
"X.	c #387C91",
"Y.	c #70ABB8",
"Z.	c #7EB6C3",
"`.	c #69A1AF",
" +	c #448495",
".+	c #8BBAC3",
"++	c #A1BCC3",
"@+	c #93AFB9",
"#+	c #A9C6CD",
"$+	c #A4C4CD",
"%+	c #78A4B4",
"&+	c #C0D8DB",
"*+	c #CADEE4",
"=+	c #98BCC7",
"-+	c #8FB8C7",
";+	c #DDECED",
">+	c #F2F6F7",
",+	c #B7D4DB",
"'+	c #99C3CC",
")+	c #5EA3B8",
"!+	c #72AFCB",
"~+	c #4595B1",
"{+	c #529AAF",
"]+	c #4893AB",
"^+	c #267C9C",
"/+	c #1B7193",
"(+	c #94B5C4",
"_+	c #73A7B5",
":+	c #48889A",
"<+	c #458192",
"[+	c #7CB6C2",
"}+	c #7DB5C1",
"|+	c #67A2B1",
"1+	c #689AA8",
"2+	c #D5E5E8",
"3+	c #73A6B3",
"4+	c #44869A",
"5+	c #4B91A5",
"6+	c #317C97",
"7+	c #166A89",
"8+	c #5793AB",
"9+	c #6EA1B8",
"0+	c #237C98",
"a+	c #5B98AF",
"b+	c #9DC1D3",
"c+	c #5BA0B6",
"d+	c #66A6BC",
"e+	c #87B9CC",
"f+	c #7AB1CB",
"g+	c #9FC6DC",
"h+	c #95C1CF",
"i+	c #1F779B",
"j+	c #3F8CA5",
"k+	c #68AABA",
"l+	c #99C5D0",
"m+	c #A8C5D0",
"n+	c #23697F",
"o+	c #5691A1",
"p+	c #457F90",
"q+	c #629CAC",
"r+	c #71AFBC",
"s+	c #98B5BE",
"t+	c #7BAAB8",
"u+	c #478DA1",
"v+	c #3C829B",
"w+	c #2B7793",
"x+	c #2C7895",
"y+	c #498FA7",
"z+	c #5694AD",
"A+	c #8FBACA",
"B+	c #68A3B9",
"C+	c #84B4CB",
"D+	c #247EA3",
"E+	c #5EA1BC",
"F+	c #83B7CC",
"G+	c #89BBC9",
"H+	c #5098AF",
"I+	c #68A6BC",
"J+	c #B7CED9",
"K+	c #85AFC4",
"L+	c #B9D7DF",
"M+	c #6DA7B7",
"N+	c #AAC6CE",
"O+	c #90C2CD",
"P+	c #3E7D90",
"Q+	c #377485",
"R+	c #538E9D",
"S+	c #4E8899",
"T+	c #7EB7C2",
"U+	c #7BB4C0",
"V+	c #ABCFD6",
"W+	c #85ADBA",
"X+	c #2A7691",
"Y+	c #27738F",
"Z+	c #3C859F",
"`+	c #5D9DAF",
" @	c #4B93AA",
".@	c #DBE9ED",
"+@	c #DAEAEB",
"@@	c #72AEBD",
"#@	c #9BC5D7",
"$@	c #B2D0E8",
"%@	c #E6EEF4",
"&@	c #FFFEFD",
"*@	c #B2CCD6",
"=@	c #438CA3",
"-@	c #9CBDC8",
";@	c #6BA4B6",
">@	c #A1CAD3",
",@	c #99B3C3",
"'@	c #89A5B4",
")@	c #72ADBB",
"!@	c #5C9BA9",
"~@	c #4B8798",
"{@	c #498393",
"]@	c #7BB4BF",
"^@	c #7EB5C1",
"/@	c #63A2B2",
"(@	c #95B6C4",
"_@	c #5C96AA",
":@	c #60A2B2",
"<@	c #75AFBE",
"[@	c #7EB6C1",
"}@	c #74B0BB",
"|@	c #599BB4",
"1@	c #EDF2F5",
"2@	c #7FB8C4",
"3@	c #B0D2D9",
"4@	c #FFFFFF",
"5@	c #CDDFEA",
"6@	c #A5C2D9",
"7@	c #E4EAEE",
"8@	c #E4E5E7",
"9@	c #7AA7B6",
"0@	c #79A6B5",
"a@	c #578FA4",
"b@	c #81BAC7",
"c@	c #ACC6D0",
"d@	c #78A5B4",
"e@	c #DBEDEF",
"f@	c #7BA2AD",
"g@	c #347386",
"h@	c #508B9B",
"i@	c #4F8898",
"j@	c #83BBC9",
"k@	c #80BAC6",
"l@	c #7DB6C0",
"m@	c #72ADB9",
"n@	c #478DA3",
"o@	c #387E9A",
"p@	c #D5E6EA",
"q@	c #B0D4D9",
"r@	c #72AFBC",
"s@	c #72AFBA",
"t@	c #80B7C1",
"u@	c #9AC2D6",
"v@	c #CCE2E7",
"w@	c #8EBFCA",
"x@	c #CEE2E6",
"y@	c #FFFFFE",
"z@	c #BFD2DF",
"A@	c #BACBD7",
"B@	c #EBECED",
"C@	c #91AEB8",
"D@	c #73A5B3",
"E@	c #6B92A5",
"F@	c #A8C1CB",
"G@	c #93C2CD",
"H@	c #6CADBC",
"I@	c #619BAA",
"J@	c #748E98",
"K@	c #9AB4BB",
"L@	c #427F8E",
"M@	c #538F9F",
"N@	c #4B8796",
"O@	c #437F8E",
"P@	c #6BA9B8",
"Q@	c #2F7A96",
"R@	c #4E95AA",
"S@	c #85BBC4",
"T@	c #CBE0E3",
"U@	c #CBE1E4",
"V@	c #83B8C2",
"W@	c #C6DFE1",
"X@	c #5EA2BD",
"Y@	c #97C4D0",
"Z@	c #B0D2D8",
"`@	c #B6D5DC",
" #	c #E9EEEF",
".#	c #B3C2CD",
"+#	c #E9E7E9",
"@#	c #8EAFB9",
"##	c #448597",
"$#	c #D1D9DD",
"%#	c #75A1AF",
"&#	c #226A80",
"*#	c #2B6D7F",
"=#	c #427F8F",
"-#	c #488899",
";#	c #92B1B8",
">#	c #88A2A8",
",#	c #2C6D7E",
"'#	c #337180",
")#	c #3C7988",
"!#	c #7DB4BF",
"~#	c #5599AC",
"{#	c #317F9F",
"]#	c #72AEBC",
"^#	c #81B7C0",
"/#	c #77B2BD",
"(#	c #A4CBD1",
"_#	c #E3EEEF",
":#	c #B5D2E3",
"<#	c #2E84A9",
"[#	c #438EAA",
"}#	c #BBD7DC",
"|#	c #87BBC7",
"1#	c #F7FBFA",
"2#	c #CACDD2",
"3#	c #CBD3D6",
"4#	c #75AEBB",
"5#	c #84A4AE",
"6#	c #B4C0C4",
"7#	c #5392A2",
"8#	c #4D8B9C",
"9#	c #4D8A9A",
"0#	c #5591A0",
"a#	c #498695",
"b#	c #2F7182",
"c#	c #A9C2C9",
"d#	c #4D7A87",
"e#	c #6AA7B3",
"f#	c #81BAC8",
"g#	c #5197AE",
"h#	c #2F81A2",
"i#	c #5BA1B5",
"j#	c #5FA3B6",
"k#	c #60A4B8",
"l#	c #9AC2D5",
"m#	c #67A4BE",
"n#	c #C9E0E4",
"o#	c #93BDCC",
"p#	c #A5C3D3",
"q#	c #6CA6B6",
"r#	c #67A3B2",
"s#	c #CCDBE0",
"t#	c #91ABB5",
"u#	c #4B8495",
"v#	c #B1D0D7",
"w#	c #BCD6DB",
"x#	c #9DB9C0",
"y#	c #558997",
"z#	c #3F7D8D",
"A#	c #3C7887",
"B#	c #468291",
"C#	c #67A5B3",
"D#	c #9BC6CE",
"E#	c #76949D",
"F#	c #327284",
"G#	c #4B8596",
"H#	c #4F97AF",
"I#	c #2A81A5",
"J#	c #4B97AF",
"K#	c #4C99B1",
"L#	c #4292AD",
"M#	c #8FBDD0",
"N#	c #68A4BD",
"O#	c #3286A2",
"P#	c #87BDC5",
"Q#	c #76ABBB",
"R#	c #89ADC1",
"S#	c #BBCED7",
"T#	c #8DB3BF",
"U#	c #74A6B5",
"V#	c #5690A0",
"W#	c #20687D",
"X#	c #7497A2",
"Y#	c #819EA7",
"Z#	c #276C7F",
"`#	c #90AEB6",
" $	c #8BB6C1",
".$	c #609DAC",
"+$	c #69A6B3",
"@$	c #7CB7C3",
"#$	c #D1E6E9",
"$$	c #93BCC5",
"%$	c #2D6E80",
"&$	c #336E7F",
"*$	c #5098B1",
"=$	c #2A85A9",
"-$	c #77B3C0",
";$	c #85BAC3",
">$	c #7BB4C2",
",$	c #D4E5E7",
"'$	c #35839E",
")$	c #3A849F",
"!$	c #297692",
"~$	c #76ADBE",
"{$	c #DCECEE",
"]$	c #9FCBD4",
"^$	c #ACCDD5",
"/$	c #92AEB7",
"($	c #9BAAB0",
"_$	c #B9C1C5",
":$	c #8EAFB8",
"<$	c #8EB6C0",
"[$	c #9FB5B9",
"}$	c #7B989F",
"|$	c #84B2BD",
"1$	c #A4CED9",
"2$	c #AAD1D8",
"3$	c #BBDADF",
"4$	c #D2E6E9",
"5$	c #B1D4DA",
"6$	c #78B5C3",
"7$	c #7DB6C3",
"8$	c #7EB4BF",
"9$	c #63A7B7",
"0$	c #237EA4",
"a$	c #5EA4B9",
"b$	c #569CAF",
"c$	c #5B97B3",
"d$	c #71A2B8",
"e$	c #5C9DAF",
"f$	c #7AB4BF",
"g$	c #3B829C",
"h$	c #69A5B6",
"i$	c #407F90",
"j$	c #92AAB3",
"k$	c #698D99",
"l$	c #6A9FAB",
"m$	c #88AEB6",
"n$	c #B7D9E0",
"o$	c #CEE0E3",
"p$	c #A0AEB2",
"q$	c #7D989E",
"r$	c #B6D2D8",
"s$	c #B8D8DF",
"t$	c #A5CDD5",
"u$	c #84BBC6",
"v$	c #72B0BD",
"w$	c #7DB5C0",
"x$	c #6FABBA",
"y$	c #3F8DAA",
"z$	c #3282A3",
"A$	c #297C98",
"B$	c #AECFD9",
"C$	c #7BAEBD",
"D$	c #347C93",
"E$	c #7FB8C1",
"F$	c #4B8A9E",
"G$	c #74ADBA",
"H$	c #70AEBA",
"I$	c #99C6CF",
"J$	c #BDCED2",
"K$	c #9CB5BC",
"L$	c #729FAC",
"M$	c #266679",
"N$	c #5996A5",
"O$	c #5B98A7",
"P$	c #589BAB",
"Q$	c #81A6AF",
"R$	c #B0D3DB",
"S$	c #347685",
"T$	c #498796",
"U$	c #75B3C1",
"V$	c #75B2BF",
"W$	c #7AB5C1",
"X$	c #7BB5BF",
"Y$	c #7CB5C1",
"Z$	c #599BB0",
"`$	c #327F9C",
" %	c #1B6C88",
".%	c #9BBAC3",
"+%	c #558A9A",
"@%	c #458699",
"#%	c #438294",
"$%	c #8FBFC9",
"%%	c #C7E0E5",
"&%	c #CED1D3",
"*%	c #588B99",
"=%	c #1D6175",
"-%	c #498494",
";%	c #4A8593",
">%	c #3E7887",
",%	c #387685",
"'%	c #A6C8D0",
")%	c #B0D2DA",
"!%	c #508E9C",
"~%	c #417A88",
"{%	c #4F8FA3",
"]%	c #28728B",
"^%	c #5F899A",
"/%	c #98B5BF",
"(%	c #7FB6C2",
"_%	c #88BCC9",
":%	c #6A97A4",
"<%	c #BED8DC",
"[%	c #DBEDF0",
"}%	c #9EC9D2",
"|%	c #64909C",
"1%	c #728E97",
"2%	c #2A6A7C",
"3%	c #5792A0",
"4%	c #3E7987",
"5%	c #508A98",
"6%	c #32707F",
"7%	c #9CBCC1",
"8%	c #88AFB7",
"9%	c #448190",
"0%	c #3E7785",
"a%	c #79B1BD",
"b%	c #4E8C9F",
"c%	c #37778A",
"d%	c #7C9CA6",
"e%	c #AFC2C6",
"f%	c #BAD0D5",
"g%	c #8DA8B0",
"h%	c #89B4BD",
"i%	c #5A95A3",
"j%	c #337283",
"k%	c #1C5D6E",
"l%	c #9CB4BB",
"m%	c #A0C5CC",
"n%	c #67A6B2",
"o%	c #528B9A",
"p%	c #458291",
"q%	c #BAD3D7",
"r%	c #A6D4DD",
"s%	c #5692A0",
"t%	c #437D8A",
"u%	c #79B2BD",
"v%	c #5C98A5",
"w%	c #417F90",
"x%	c #336D7E",
"y%	c #316D7C",
"z%	c #256677",
"A%	c #26687A",
"B%	c #2F6B7B",
"C%	c #3F798A",
"D%	c #498493",
"E%	c #467E8A",
"F%	c #CFDEDF",
"G%	c #6C9CA6",
"H%	c #6CABBA",
"I%	c #5E9AA8",
"J%	c #7EB5C2",
"K%	c #AEC2C5",
"L%	c #6DA6B3",
"M%	c #3A7481",
"N%	c #5D96A4",
"O%	c #7FB8C6",
"P%	c #6AA5B1",
"Q%	c #5C95A4",
"R%	c #5C97A5",
"S%	c #5C98A7",
"T%	c #649EAC",
"U%	c #77B1BD",
"V%	c #78B1BD",
"W%	c #468391",
"X%	c #3F707C",
"Y%	c #CFDDE0",
"Z%	c #AFD6DF",
"`%	c #659CA9",
" &	c #CFE7EB",
".&	c #ADCFD6",
"+&	c #266473",
"@&	c #437C8A",
"#&	c #7AB4C1",
"$&	c #7CB6C3",
"%&	c #7CB3C0",
"&&	c #458290",
"*&	c #407583",
"=&	c #93ADB3",
"-&	c #9BADB2",
";&	c #85A5AD",
">&	c #336F7D",
",&	c #47818E",
"'&	c #76AFBD",
")&	c #82B8C3",
"!&	c #81B7C3",
"~&	c #82B8C4",
"{&	c #83B9C5",
"]&	c #84BAC7",
"^&	c #6BA3B1",
"/&	c #518B9A",
"(&	c #538B99",
"_&	c #4E8997",
":&	c #6AA1AF",
"<&	c #83BAC6",
"[&	c #84BBC7",
"}&	c #82B9C5",
"|&	c #82BAC6",
"1&	c #4E9CAF",
"2&	c #4D9CAF",
"3&	c #4E9DB0",
"4&	c #519FB2",
"5&	c #52A1B4",
"6&	c #53A1B4",
"7&	c #51A0B3",
"                                                                ",
". + @ # @ @ @ . @ @ @ @ @ $ @ @ $ % % % % % % % % % % % % % % % ",
"& * = = - ; > * - , > ' ) ! ~ { ] ^ ^ ^ ^ ^ ^ ^ ^ ^ / / ^ ^ ^ ^ ",
"( _ : < < < < < < [ } | 1 2 3 4 5 6 7 7 7 7 7 7 7 7 7 7 7 7 7 7 ",
"( ( _ : : : < < : : 8 9 0 a b c d e 6 f 7 7 7 7 7 7 7 7 7 7 7 7 ",
"( _ : : _ _ < < : g h i j k l m n o p q r s t u u v 7 7 7 7 7 7 ",
"( _ : w x y z A _ B C D E F G H I J K L u M N O P Q R 7 7 7 7 S ",
"_ : : w f T U V ) W X Y Z `  ...+.@.#.$.%.&.*.Q =.-.;.v 7 7 7 S ",
"_ _ _ V >.,.'.).!.~.{.].^./.(._.:.<.[.}.|.1.2.3.4.5.6.7.7 7 7 8.",
": : 9.0.a.b.c.d.e.f.g.h.i.j.k.l.m.n.o.p.q.r.s.t.u.v.w.x.6 7 7 8.",
": [ y.z.A.B.C.D.E.F.G.H.I.J.K.L.M.N.O.P.Q.R.S.T.U.V.W.X.Y.K.7 8.",
"_ Z.`. +.+++@+#+$+%+&+*+=+-+;+>+,+'+)+!+~+{+]+^+/+(+_+:+<+s [+7 ",
"_ }+|+1+2+3+4+5+6+7+8+9+0+a+b+c+d+e+f+g+h+i+j+k+l+m+n+o+p+q+K.7 ",
"_ ~ r+s+t+u+v+w+x+y+z+A+B+C+D+E+F+G+H+I+J+K+L+M+N+O+P+Q+R+S+T+7 ",
"g U+v V+W+X+Y+Z+`+9. @.@+@@@#@$@%@&@*@=@-@;@>@,@'@)@!@~@R+{@[+[+",
"A ]@^@/@(@_@:@<@[@}@|@1@2@3@4@5@6@7@8@9@0@a@b@c@d@e@f@g@h@i@j@k@",
"< l@m@n@o@p@q@r@s@t@u@v@w@x@4@y@z@A@B@C@D@E@F@G@H@I@J@K@L@M@N@O@",
"< l@P@Q@R@S@T@U@V@W@X@Y@Z@`@4@4@ #.#+#@###$#%#&#*#=#-#;#>#,#'#)#",
"!#]@~#{#]#^#/#(#_#:#<#[#}#|#1#4@4@2#3#4#5#6#7#8#9#0#a#b#c#d#e#f#",
") ( g#h#i#j#i#k#l#m#n#o#p#q#r#I s#t#u#v#w#x#y#z#O@A#B#C#D#E#F#G#",
") ( H#I#J#K#L#M#N#O#P#Q#R#S#T#U#V#W#X#Y#Z#`# $f..$+$r+@$#$$$%$&$",
"< ( *$=$-$;$>$,$U '$)$!$~${$]$^$/$($_$:$<$[$}$|$1$2$3$4$5$6$7$7 ",
"_ 8$9$0$a$b$c$d$e$f$g$h$U D ] i$j$k$l$m$n$o$p$q$r$s$t$u$v$8.}+[+",
": w$x$y$z$A$B$C$D$E$F$G$H$I$J$K$L$M$N$O$P$Q$R$S$T$U$V$W$7 8.S 7 ",
"< X$Y$Z$`$ %.%+%@%V #%C#$%%%&%*%=%-%;%>%,%'%)%!%~%r [+[+7 8.S 7 ",
"< ]@8.~ {%]%^%/%(%_%:%<%[%}%|%1%2%3%4%5%6%7%8%9%0%f$[+7 7 7 7 7 ",
"< ]@8.( a%b%c%d%e%f%g%h%i%j%k%l%m%n%o%~%p%q%r%s%t%r [+7 7 7 7 7 ",
"_ : : ]@u%]@v%w%x%y%z%A%B%C%D%E%F%G%H%I%J%K%L%M%N%O%7 7 7 7 7 7 ",
"_ _ < ]@]@[ Y$y.P%Q%R%S%T%U%V%W%X%Y%Z%`% &.&+&@&#&$&7 7 7 7 7 7 ",
"_ < < : < < %&} ) %&) < (%z T+a%&&*&=&-&;&>&,&'&r 7 [+[+7 7 7 7 ",
"{ )&)&{ { { { { !&{ ~&] ] ~&~&{&]&^&/&(&_&:&<&[&}&}&}&|&}&}&}&}&",
"1&2&2&1&2&2&2&1&1&1&1&1&2&2&2&2&3&4&5&5&6&7&3&1&1&1&2&2&1&1&1&1&"};
