/* XPM */
static const char * font_italic_xpm[] = {
"20 26 138 2",
"  	c None",
". 	c #807D73",
"+ 	c #252120",
"@ 	c #272428",
"# 	c #28262B",
"$ 	c #262528",
"% 	c #222324",
"& 	c #1D2124",
"* 	c #1C2329",
"= 	c #1B2326",
"- 	c #3B4346",
"; 	c #C9D1D4",
"> 	c #4A4738",
", 	c #070200",
"' 	c #030001",
") 	c #010004",
"! 	c #000004",
"~ 	c #000206",
"{ 	c #00040A",
"] 	c #00050C",
"^ 	c #050E15",
"/ 	c #475056",
"( 	c #DCE6E8",
"_ 	c #C9C3B4",
": 	c #514B40",
"< 	c #0B0606",
"[ 	c #010007",
"} 	c #03040A",
"| 	c #010209",
"1 	c #01060F",
"2 	c #364049",
"3 	c #A7B1BB",
"4 	c #696355",
"5 	c #080301",
"6 	c #020108",
"7 	c #00000A",
"8 	c #000007",
"9 	c #49515B",
"0 	c #ABA291",
"a 	c #2C251A",
"b 	c #030000",
"c 	c #010006",
"d 	c #00010E",
"e 	c #080D1C",
"f 	c #837A6C",
"g 	c #080000",
"h 	c #060201",
"i 	c #010107",
"j 	c #00000D",
"k 	c #394153",
"l 	c #52463D",
"m 	c #010000",
"n 	c #040103",
"o 	c #000110",
"p 	c #6F7B8B",
"q 	c #766A5D",
"r 	c #160B05",
"s 	c #070000",
"t 	c #040004",
"u 	c #00000B",
"v 	c #151F2F",
"w 	c #8896A4",
"x 	c #6D6259",
"y 	c #04000A",
"z 	c #00000F",
"A 	c #404D5E",
"B 	c #291F16",
"C 	c #060001",
"D 	c #01000C",
"E 	c #000013",
"F 	c #7D8B9A",
"G 	c #8D826D",
"H 	c #030106",
"I 	c #000010",
"J 	c #1E283E",
"K 	c #534734",
"L 	c #000000",
"M 	c #000001",
"N 	c #01040B",
"O 	c #454F65",
"P 	c #9B8A79",
"Q 	c #281B0E",
"R 	c #010205",
"S 	c #000009",
"T 	c #0E1526",
"U 	c #EADDD6",
"V 	c #78675B",
"W 	c #0D0000",
"X 	c #040001",
"Y 	c #01030A",
"Z 	c #495260",
"` 	c #D1C3BA",
" .	c #3B2926",
"..	c #040000",
"+.	c #030105",
"@.	c #00010C",
"#.	c #0A101F",
"$.	c #AA9B91",
"%.	c #100000",
"&.	c #080001",
"*.	c #030107",
"=.	c #2C3444",
"-.	c #685A50",
";.	c #090005",
">.	c #000006",
",.	c #00010F",
"'.	c #536070",
").	c #C8BBAB",
"!.	c #170800",
"~.	c #0C0002",
"{.	c #050004",
"].	c #010008",
"^.	c #0C1322",
"/.	c #8896A5",
"(.	c #837A6E",
"_.	c #090103",
":.	c #040106",
"<.	c #000008",
"[.	c #323B47",
"}.	c #221A12",
"|.	c #090100",
"1.	c #040002",
"2.	c #000003",
"3.	c #515862",
"4.	c #A9B7C2",
"5.	c #4F4F4A",
"6.	c #070702",
"7.	c #4F5B62",
"8.	c #8F8780",
"9.	c #64625E",
"0.	c #686664",
"a.	c #696562",
"b.	c #676764",
"c.	c #656765",
"d.	c #666665",
"e.	c #666567",
"f.	c #5F6367",
"g.	c #7D888D",
"                                        ",
"                                        ",
"                                        ",
"                  . + @ # $ % & * = - ; ",
"                  > , ' ) ! ~ { ] ^ / ( ",
"                  _ : < [ } | 1 2 3     ",
"                    4 5 6 7 8 9         ",
"                  0 a b c d e           ",
"                  f g h i j k           ",
"                  l m n [ o p           ",
"                q r s t u v w           ",
"                x b s y z A             ",
"                B g C D E F             ",
"              G b ' H I J               ",
"              K L M N z O               ",
"            P Q b R S T                 ",
"          U V W X Y 8 Z                 ",
"          `  ...+.@.#.                  ",
"          $.%.&.*.7 =.                  ",
"          -...;.>.,.'.                  ",
"        ).!.~.{.].^./.                  ",
"        (.L _.:.<.[.                    ",
"        }.|.1.:.2.3.4.                  ",
"    5.6.L L L L L ! 7.                  ",
"  8.9.0.a.b.c.d.e.f.g.                  ",
"                                        "};
