/* XPM */
static const char * font_bold_xpm[] = {
"20 26 225 2",
"  	c None",
". 	c #ADA8A8",
"+ 	c #797978",
"@ 	c #565A5F",
"# 	c #24292B",
"$ 	c #262929",
"% 	c #2B2726",
"& 	c #716E6D",
"* 	c #DFDDCD",
"= 	c #6C6A62",
"- 	c #0E0906",
"; 	c #110B0C",
"> 	c #1F1E1E",
", 	c #121214",
"' 	c #0C0D15",
") 	c #02060C",
"! 	c #000202",
"~ 	c #0C0806",
"{ 	c #171010",
"] 	c #111011",
"^ 	c #121517",
"/ 	c #A4A7AB",
"( 	c #F6FBFF",
"_ 	c #2A2818",
": 	c #070000",
"< 	c #080201",
"[ 	c #020002",
"} 	c #01080B",
"| 	c #020711",
"1 	c #2D363D",
"2 	c #686B6A",
"3 	c #302722",
"4 	c #060000",
"5 	c #030001",
"6 	c #010105",
"7 	c #010308",
"8 	c #5B6066",
"9 	c #322B21",
"0 	c #120502",
"a 	c #090000",
"b 	c #0A0403",
"c 	c #000305",
"d 	c #000106",
"e 	c #414F59",
"f 	c #E8DED5",
"g 	c #4A3E35",
"h 	c #000000",
"i 	c #040407",
"j 	c #000004",
"k 	c #03080E",
"l 	c #5E666E",
"m 	c #1F0F09",
"n 	c #0C0000",
"o 	c #050000",
"p 	c #000204",
"q 	c #00050A",
"r 	c #818E9A",
"s 	c #9E9287",
"t 	c #0A0200",
"u 	c #040204",
"v 	c #000209",
"w 	c #414950",
"x 	c #210E07",
"y 	c #0D0000",
"z 	c #050101",
"A 	c #010304",
"B 	c #000107",
"C 	c #84919D",
"D 	c #251B17",
"E 	c #040000",
"F 	c #030207",
"G 	c #34383F",
"H 	c #030102",
"I 	c #010405",
"J 	c #000709",
"K 	c #7E8893",
"L 	c #160E0B",
"M 	c #080303",
"N 	c #010004",
"O 	c #010409",
"P 	c #404549",
"Q 	c #1F0E0A",
"R 	c #0B0000",
"S 	c #000708",
"T 	c #8A919D",
"U 	c #7D7467",
"V 	c #000105",
"W 	c #0A0D13",
"X 	c #4B5457",
"Y 	c #1D0E0B",
"Z 	c #080000",
"` 	c #010001",
" .	c #8A8D99",
"..	c #888076",
"+.	c #030000",
"@.	c #030205",
"#.	c #02050B",
"$.	c #60666C",
"%.	c #1C0E0B",
"&.	c #000001",
"*.	c #000304",
"=.	c #000104",
"-.	c #90909C",
";.	c #8F8996",
">.	c #271E21",
",.	c #0D0604",
"'.	c #040100",
").	c #222530",
"!.	c #9EA4AE",
"~.	c #1D0E09",
"{.	c #010100",
"].	c #000201",
"^.	c #000002",
"/.	c #8E8F9C",
"(.	c #6B6773",
"_.	c #060004",
":.	c #000006",
"<.	c #2D343E",
"[.	c #B4BBC5",
"}.	c #200F07",
"|.	c #020000",
"1.	c #878E99",
"2.	c #A8A6A6",
"3.	c #433C32",
"4.	c #100905",
"5.	c #040712",
"6.	c #686D7C",
"7.	c #1F0F08",
"8.	c #040304",
"9.	c #89929D",
"0.	c #F2ECE0",
"a.	c #675F54",
"b.	c #110C0A",
"c.	c #020003",
"d.	c #000008",
"e.	c #000311",
"f.	c #2A3040",
"g.	c #1D0F09",
"h.	c #0A0000",
"i.	c #86909C",
"j.	c #635C50",
"k.	c #000005",
"l.	c #00020F",
"m.	c #0A0D1E",
"n.	c #778292",
"o.	c #1D0F0B",
"p.	c #040003",
"q.	c #858F9B",
"r.	c #958D7B",
"s.	c #0B0300",
"t.	c #010003",
"u.	c #030510",
"v.	c #00000F",
"w.	c #4F596F",
"x.	c #1B100C",
"y.	c #030004",
"z.	c #00020B",
"A.	c #848D9C",
"B.	c #A29783",
"C.	c #120903",
"D.	c #050305",
"E.	c #000315",
"F.	c #44526A",
"G.	c #050005",
"H.	c #010007",
"I.	c #150B06",
"J.	c #020309",
"K.	c #00000C",
"L.	c #444E66",
"M.	c #1D100C",
"N.	c #050003",
"O.	c #010005",
"P.	c #88909B",
"Q.	c #7B7065",
"R.	c #050208",
"S.	c #000411",
"T.	c #636F82",
"U.	c #110303",
"V.	c #070004",
"W.	c #030204",
"X.	c #838990",
"Y.	c #FFFFFF",
"Z.	c #CCC7BC",
"`.	c #1B120E",
" +	c #050002",
".+	c #05020B",
"++	c #000207",
"@+	c #050B15",
"#+	c #444D5D",
"$+	c #5C5446",
"%+	c #0C0100",
"&+	c #070001",
"*+	c #050607",
"=+	c #08080D",
"-+	c #6F7275",
";+	c #B1B3AF",
">+	c #909086",
",+	c #0A0700",
"'+	c #080103",
")+	c #070208",
"!+	c #01000A",
"~+	c #010307",
"{+	c #494E54",
"]+	c #474239",
"^+	c #1A110E",
"/+	c #010000",
"(+	c #030302",
"_+	c #050200",
":+	c #030007",
"<+	c #100F16",
"[+	c #2F3035",
"}+	c #B3B6BB",
"|+	c #726A66",
"1+	c #110B0B",
"2+	c #5D5958",
"3+	c #393836",
"4+	c #252522",
"5+	c #111216",
"6+	c #111115",
"7+	c #131313",
"8+	c #14120E",
"9+	c #2D2B28",
"0+	c #3F403E",
"a+	c #252528",
"b+	c #64656A",
"                                        ",
"                                        ",
"            . + @ # $ % &               ",
"    * = - ; > , ' ) ! ~ { ] ^ / (       ",
"    _ : : < [ } | 1 2 3 4 5 6 7 8       ",
"    9 0 a b c d e     f g h i j k l     ",
"      m n o p q r       s t u j v w     ",
"      x y z A B C         D E F d G     ",
"      x n H I J K         L M N O P     ",
"      Q R 5 S h T       U h u V W X     ",
"      Y Z ` p p  .    ..+.@.j #.$.      ",
"      %.Z &.*.=.-.;.>.,.'.B ).!.        ",
"      ~.Z {.].^./.(._.Z +.:.<.[.        ",
"      }.n 4 |.p 1.  2.3.4.5 j 5.6.      ",
"      7.n 4 8.&.9.    0.a.b.c.d.e.f.    ",
"      g.h.o N B i.        j.E k.l.m.n.  ",
"      o.a p.B :.q.        r.s.t.u.v.w.  ",
"      x.a y.:.z.A.        B.C.D.d.E.F.  ",
"      x.Z G.H.:.q.          I.p.J.K.L.  ",
"      M.: N.O.:.P.        Q.: R.:.S.T.  ",
"      U.: V.W.h X.Y.    Z.`. +.+++@+#+  ",
"    $+%+n &+|.*+=+-+;+>+,+'+)+!+~+{+    ",
"    ]+^+: E /+(+j h h h _++.:+<+[+}+    ",
"      |+1+2+3+4+5+6+7+8+9+0+a+b+        ",
"                                        ",
"                                        "};
