/* XPM */
static const char * font_underlined_xpm[] = {
"20 26 140 2",
"  	c None",
". 	c #49443F",
"+ 	c #050400",
"@ 	c #010101",
"# 	c #020101",
"$ 	c #030305",
"% 	c #00030B",
"& 	c #2E333C",
"* 	c #797880",
"= 	c #A7A29A",
"- 	c #211A17",
"; 	c #030000",
"> 	c #040106",
", 	c #000000",
"' 	c #3C4B4B",
") 	c #010001",
"! 	c #040301",
"~ 	c #121622",
"{ 	c #1E1515",
"] 	c #6A7275",
"^ 	c #070601",
"/ 	c #020100",
"( 	c #030200",
"_ 	c #000003",
": 	c #202733",
"< 	c #2B211F",
"[ 	c #020003",
"} 	c #070200",
"| 	c #030100",
"1 	c #020201",
"2 	c #000105",
"3 	c #2E3644",
"4 	c #FFFFFF",
"5 	c #342823",
"6 	c #060005",
"7 	c #030102",
"8 	c #010408",
"9 	c #1A2233",
"0 	c #30241E",
"a 	c #040004",
"b 	c #040000",
"c 	c #030001",
"d 	c #000100",
"e 	c #000306",
"f 	c #1C2437",
"g 	c #33241F",
"h 	c #060007",
"i 	c #000308",
"j 	c #192539",
"k 	c #34241D",
"l 	c #070000",
"m 	c #030002",
"n 	c #000309",
"o 	c #18243B",
"p 	c #070007",
"q 	c #060000",
"r 	c #000001",
"s 	c #00040A",
"t 	c #17243C",
"u 	c #34241C",
"v 	c #070008",
"w 	c #000002",
"x 	c #18243F",
"y 	c #060009",
"z 	c #050001",
"A 	c #00020A",
"B 	c #1B243C",
"C 	c #32241E",
"D 	c #05000C",
"E 	c #080000",
"F 	c #060003",
"G 	c #04010C",
"H 	c #232337",
"I 	c #302421",
"J 	c #03000D",
"K 	c #0D0400",
"L 	c #0B0200",
"M 	c #080002",
"N 	c #040009",
"O 	c #1C1A27",
"P 	c #221A18",
"Q 	c #01000E",
"R 	c #686055",
"S 	c #231B17",
"T 	c #050000",
"U 	c #050008",
"V 	c #0E0C19",
"W 	c #6C665A",
"X 	c #252232",
"Y 	c #342D26",
"Z 	c #0C0605",
"` 	c #010002",
" .	c #020108",
"..	c #0F1018",
"+.	c #6F7377",
"@.	c #D1CFD1",
"#.	c #1F1B18",
"$.	c #130F0C",
"%.	c #090607",
"&.	c #292732",
"*.	c #34302F",
"=.	c #050304",
"-.	c #040308",
";.	c #000004",
">.	c #000101",
",.	c #050203",
"'.	c #020000",
").	c #0C0C08",
"!.	c #323229",
"~.	c #8A8987",
"{.	c #0C0D0F",
"].	c #242525",
"^.	c #1E1F1E",
"/.	c #252525",
"(.	c #060304",
"_.	c #050402",
":.	c #A0A296",
"<.	c #9C9E9D",
"[.	c #8B8C8C",
"}.	c #A3A1A2",
"|.	c #5B5B58",
"1.	c #6C6C6C",
"2.	c #AAAAA6",
"3.	c #737377",
"4.	c #737378",
"5.	c #737479",
"6.	c #747475",
"7.	c #757573",
"8.	c #757671",
"9.	c #757474",
"0.	c #767478",
"a.	c #757479",
"b.	c #747479",
"c.	c #747675",
"d.	c #757376",
"e.	c #787376",
"f.	c #767270",
"g.	c #75736F",
"h.	c #73726E",
"i.	c #ADADAD",
"                                        ",
"                                        ",
"    . + @ # $ % & *       = - ; > , '   ",
"      # ) ! $ ~               { , ]     ",
"      ^ / ( _ :               < [       ",
"      } | 1 2 3 4             5 6       ",
"      ; 7 , 8 9               0 a       ",
"      b c d e f               g h       ",
"      b c d i j               k h       ",
"      l m d n o               k p       ",
"      q m r s t               u v       ",
"      q m w s x               u y       ",
"      l z r A B               C D       ",
"      l E F G H               I J       ",
"      K L M N O               P Q       ",
"      R S T U V             W z X       ",
"        Y Z `  ...+.    @.#.$.%.&.      ",
"          *.=.-.;.w r >.,.'.).!.        ",
"            ~., {.].^./.(._.:.          ",
"                  <.[.}.                ",
"                                        ",
"                                        ",
"                                        ",
"                                        ",
"  |., , , , , , , , , , , , , , , , , 1.",
"  2.3.4.5.6.7.8.9.0.a.b.c.c.d.e.f.g.h.i."};
