/* XPM */
static const char * format_fillcolor_xpm[] = {
"25 25 286 2",
"  	c None",
". 	c #E8F0F3",
"+ 	c #DCD8A3",
"@ 	c #F4F0D9",
"# 	c #F1E288",
"$ 	c #DCCD6F",
"% 	c #FAF7D6",
"& 	c #FAE98C",
"* 	c #F1C92F",
"= 	c #EDD05D",
"- 	c #F0EBC1",
"; 	c #EDDD83",
"> 	c #F6CD31",
", 	c #FBC82B",
"' 	c #F2CD5E",
") 	c #EDE5AC",
"! 	c #F3DE7E",
"~ 	c #F2CE2A",
"{ 	c #FECC2C",
"] 	c #FAC64A",
"^ 	c #F4CE65",
"/ 	c #ECD67E",
"( 	c #FFF7C8",
"_ 	c #F9E789",
": 	c #F3CE2D",
"< 	c #FFD020",
"[ 	c #FDCC35",
"} 	c #F0C04C",
"| 	c #F8CD68",
"1 	c #ECC651",
"2 	c #F3DD74",
"3 	c #FEFBCA",
"4 	c #FAE68F",
"5 	c #F3D02E",
"6 	c #FCD225",
"7 	c #FACD25",
"8 	c #FED22B",
"9 	c #F1C030",
"0 	c #DFAB30",
"a 	c #E4B729",
"b 	c #EAC72F",
"c 	c #F0D259",
"d 	c #F9ECA6",
"e 	c #F3E57A",
"f 	c #F4D226",
"g 	c #FDCE2F",
"h 	c #F7D034",
"i 	c #F5D720",
"j 	c #F9D412",
"k 	c #FFCF1E",
"l 	c #F4B917",
"m 	c #F5C727",
"n 	c #F9CD24",
"o 	c #F7CC15",
"p 	c #EBCE20",
"q 	c #EADB60",
"r 	c #F6EFC3",
"s 	c #FFDD68",
"t 	c #F9CD2E",
"u 	c #F9D728",
"v 	c #F5D328",
"w 	c #FACE32",
"x 	c #FCCE32",
"y 	c #F9D026",
"z 	c #F6D122",
"A 	c #F8CD27",
"B 	c #F9CB28",
"C 	c #F8CA25",
"D 	c #FAC82C",
"E 	c #FEC92C",
"F 	c #F5C817",
"G 	c #F1CD17",
"H 	c #F3D73F",
"I 	c #ECE488",
"J 	c #E2FBDF",
"K 	c #E6FFFF",
"L 	c #FEF0A9",
"M 	c #FDCD3D",
"N 	c #FFD027",
"O 	c #FBD62A",
"P 	c #F6D429",
"Q 	c #FBD129",
"R 	c #FECE2A",
"S 	c #FBCF27",
"T 	c #FACE29",
"U 	c #F9CC28",
"V 	c #FACC20",
"W 	c #FBCC1F",
"X 	c #F9CC22",
"Y 	c #F4CD20",
"Z 	c #F3CC1F",
"` 	c #F4C91C",
" .	c #ECC821",
"..	c #DAC539",
"+.	c #C1B857",
"@.	c #BBC085",
"#.	c #D3E5D0",
"$.	c #F6E16D",
"%.	c #FBCD1A",
"&.	c #FFD328",
"*.	c #FBD332",
"=.	c #F8D427",
"-.	c #FDD222",
";.	c #FECE29",
">.	c #FDCD2B",
",.	c #FCCD2A",
"'.	c #FBCC28",
").	c #FACB20",
"!.	c #FCCC1C",
"~.	c #F7CD1F",
"{.	c #EECF1F",
"].	c #F3CC21",
"^.	c #FAC921",
"/.	c #F6CA1E",
"(.	c #F5CA18",
"_.	c #FACA18",
":.	c #DEC02C",
"<.	c #94B168",
"[.	c #7FBFC2",
"}.	c #BDEAFB",
"|.	c #F5D75A",
"1.	c #FDD516",
"2.	c #FFD42A",
"3.	c #F9D03A",
"4.	c #FAD02E",
"5.	c #FECE28",
"6.	c #FFCD2D",
"7.	c #FBCE2C",
"8.	c #F9CF28",
"9.	c #FBCA29",
"0.	c #F9CA25",
"a.	c #F4CD27",
"b.	c #F3CE27",
"c.	c #F9CC1A",
"d.	c #FBC81A",
"e.	c #F6C522",
"f.	c #FAC512",
"g.	c #FFC300",
"h.	c #F0CC3B",
"i.	c #A2C497",
"j.	c #4198B2",
"k.	c #63A7C6",
"l.	c #E1F4FB",
"m.	c #F4D16B",
"n.	c #FDD325",
"o.	c #FDD51D",
"p.	c #FBD438",
"q.	c #FDCD3A",
"r.	c #FECC2A",
"s.	c #FECF25",
"t.	c #F5D229",
"u.	c #F2D22A",
"v.	c #F7CE26",
"w.	c #F9CA29",
"x.	c #F7CA2C",
"y.	c #F5CB24",
"z.	c #F7C91A",
"A.	c #FBCB20",
"B.	c #FACA20",
"C.	c #FAC61C",
"D.	c #F1C23C",
"E.	c #F7EDB1",
"F.	c #75A8B1",
"G.	c #3E9AC1",
"H.	c #449AC1",
"I.	c #87C5E7",
"J.	c #F2D97B",
"K.	c #FAD32D",
"L.	c #FED71B",
"M.	c #FBD330",
"N.	c #FDCF36",
"O.	c #FECF24",
"P.	c #FAD31C",
"Q.	c #F3D326",
"R.	c #F3D12D",
"S.	c #F5CF25",
"T.	c #F6CE1F",
"U.	c #F7D01E",
"V.	c #F9CF19",
"W.	c #F8CA1C",
"X.	c #F2C92A",
"Y.	c #EFCC25",
"Z.	c #EFC915",
"`.	c #EFC234",
" +	c #FBE09C",
".+	c #D7F3FC",
"++	c #3F8CB0",
"@+	c #3EA1CD",
"#+	c #3395C4",
"$+	c #52B0DB",
"%+	c #F6EC8C",
"&+	c #F6D224",
"*+	c #FFD729",
"=+	c #FDCF2D",
"-+	c #FCD328",
";+	c #F9D321",
">+	c #F8D524",
",+	c #F6D324",
"'+	c #F7CE25",
")+	c #F2CF1D",
"!+	c #F4D111",
"~+	c #F9CC1D",
"{+	c #F5C92F",
"]+	c #F3D027",
"^+	c #EACF16",
"/+	c #E6C833",
"(+	c #FBE59B",
"_+	c #FFFFDE",
":+	c #B7E7F3",
"<+	c #388BAC",
"[+	c #329ACE",
"}+	c #3399CC",
"|+	c #46A6C9",
"1+	c #F4D549",
"2+	c #FED227",
"3+	c #FED42C",
"4+	c #FCCE2D",
"5+	c #FCD02F",
"6+	c #F7D11F",
"7+	c #FDCB2A",
"8+	c #F8D028",
"9+	c #FACF25",
"0+	c #F9CB2D",
"a+	c #F1CB27",
"b+	c #F0D01A",
"c+	c #E5C62C",
"d+	c #FCE8A3",
"e+	c #F0FFFF",
"f+	c #6098AF",
"g+	c #3589BD",
"h+	c #348BB7",
"i+	c #5BA2BB",
"j+	c #F8E4A3",
"k+	c #E9CD2C",
"l+	c #FFDA28",
"m+	c #FFCB39",
"n+	c #FFC830",
"o+	c #FCD31C",
"p+	c #F7D41D",
"q+	c #FBCF26",
"r+	c #FFCC26",
"s+	c #FAC627",
"t+	c #FAC22E",
"u+	c #F8C520",
"v+	c #EFD418",
"w+	c #E4C834",
"x+	c #F7DF9C",
"y+	c #D7EDF9",
"z+	c #5687A6",
"A+	c #6191AD",
"B+	c #C0E6F7",
"C+	c #F2EA92",
"D+	c #E8D139",
"E+	c #FCCD2D",
"F+	c #FFCD26",
"G+	c #FDCF1F",
"H+	c #F3D321",
"I+	c #F5D322",
"J+	c #FBCD1B",
"K+	c #FFC927",
"L+	c #FFCA21",
"M+	c #FBCC12",
"N+	c #DAC62F",
"O+	c #EFE498",
"P+	c #F1FFFF",
"Q+	c #F5EDA4",
"R+	c #E9CD3A",
"S+	c #F9CE2C",
"T+	c #FACF3A",
"U+	c #F3D332",
"V+	c #F4D31D",
"W+	c #FAD01B",
"X+	c #FCCD2B",
"Y+	c #F8CC19",
"Z+	c #DFBF25",
"`+	c #F8EAB0",
" @	c #EBD98F",
".@	c #DBC258",
"+@	c #E4C63E",
"@@	c #EFCA35",
"#@	c #F8CD28",
"$@	c #F9CF25",
"%@	c #E8C82A",
"&@	c #D4C24B",
"*@	c #F8F0B8",
"=@	c #FFFF00",
"                                                  ",
"                                                  ",
"              .     + @                           ",
"                  # $ %                           ",
"                & * = -                           ",
"              ; > , ' )                           ",
"            ! ~ { ] ^ / (                         ",
"          _ : < [ } | 1 2 3                       ",
"        4 5 6 7 8 9 0 a b c d                     ",
"      e f g h i j k l m n o p q r                 ",
"    s t u v w x y z A B C D E F G H I J K         ",
"  L M N O P Q R S T U V W X Y Z `  ...+.@.#.      ",
"  $.%.&.*.=.-.;.>.,.'.).!.~.{.].^./.(._.:.<.[.}.  ",
"  |.1.2.3.4.5.6.7.8.U 9.0.a.b.c.d.e.f.g.h.i.j.k.l.",
"  m.n.o.p.q.r.s.t.u.v.w.x.y.z.A.'.B.C.D.E.F.G.H.I.",
"  J.K.L.M.N.O.P.Q.R.S.T.U.V.W.X.Y.Z.`. +.+++@+#+$+",
"  %+&+*+=+-+;+>+,+'+A )+!+~+{+]+^+/+(+_+:+<+[+}+|+",
"    1+2+3+4+5+y 6+s.7+8+9+0+a+b+c+d+    e+f+g+h+i+",
"    j+k+l+m+n+o+p+q+r+s+t+u+v+w+x+        y+z+A+B+",
"      C+D+E+F+G+H+I+J+K+L+M+N+O+              P+  ",
"        Q+R+S+T+U+V+W+X+Y+Z+`+                    ",
"           @.@+@@@#@$@%@&@*@                      ",
"=@=@=@=@=@=@=@=@=@=@=@=@=@=@=@=@=@=@              ",
"=@=@=@=@=@=@=@=@=@=@=@=@=@=@=@=@=@=@=@=@=@=@=@=@=@",
"=@=@=@=@=@=@=@=@=@=@=@=@=@=@=@=@=@=@=@=@=@=@=@=@=@"};
