/* XPM */
static const char * format_fontcolor_xpm[] = {
"27 32 270 2",
"  	c None",
". 	c #A8A7A3",
"+ 	c #5E5F61",
"@ 	c #6E717A",
"# 	c #DADEE7",
"$ 	c #6D6862",
"% 	c #0C0B09",
"& 	c #030406",
"* 	c #020410",
"= 	c #121621",
"- 	c #BEB9B3",
"; 	c #292621",
"> 	c #000000",
", 	c #000205",
"' 	c #00020E",
") 	c #0F1521",
"! 	c #F2EEE3",
"~ 	c #45403A",
"{ 	c #060200",
"] 	c #040404",
"^ 	c #000005",
"/ 	c #00010D",
"( 	c #090F1D",
"_ 	c #F4EDE3",
": 	c #8F897D",
"< 	c #0A0500",
"[ 	c #050400",
"} 	c #000002",
"| 	c #000309",
"1 	c #000412",
"2 	c #030A1A",
"3 	c #C8BFB6",
"4 	c #080100",
"5 	c #060100",
"6 	c #030200",
"7 	c #00010A",
"8 	c #000212",
"9 	c #091022",
"0 	c #E8E1D7",
"a 	c #50473E",
"b 	c #090200",
"c 	c #050000",
"d 	c #070300",
"e 	c #040406",
"f 	c #000009",
"g 	c #000114",
"h 	c #0B1225",
"i 	c #918B7F",
"j 	c #130A03",
"k 	c #060000",
"l 	c #0D0600",
"m 	c #030000",
"n 	c #000013",
"o 	c #091023",
"p 	c #181408",
"q 	c #68605D",
"r 	c #352E28",
"s 	c #090400",
"t 	c #00030C",
"u 	c #000316",
"v 	c #050C1F",
"w 	c #F0EDE4",
"x 	c #49453A",
"y 	c #040000",
"z 	c #35302C",
"A 	c #3F3830",
"B 	c #010000",
"C 	c #060D20",
"D 	c #86837C",
"E 	c #050200",
"F 	c #28251E",
"G 	c #BCB9B4",
"H 	c #393228",
"I 	c #070302",
"J 	c #000007",
"K 	c #000012",
"L 	c #0A0F23",
"M 	c #D9D6CF",
"N 	c #36332E",
"O 	c #797876",
"P 	c #4F493D",
"Q 	c #0C0500",
"R 	c #020109",
"S 	c #000215",
"T 	c #090E22",
"U 	c #FCF9EA",
"V 	c #77746D",
"W 	c #080403",
"X 	c #353338",
"Y 	c #E9E7EA",
"Z 	c #544E40",
"` 	c #0A0100",
" .	c #010415",
"..	c #060B1E",
"+.	c #FFFAEA",
"@.	c #BFBCAB",
"#.	c #151611",
"$.	c #18191B",
"%.	c #CECDD2",
"&.	c #423A2F",
"*.	c #0C0300",
"=.	c #050100",
"-.	c #020107",
";.	c #000010",
">.	c #050C1E",
",.	c #E9E2CF",
"'.	c #191605",
").	c #000807",
"!.	c #818A8F",
"~.	c #3C332C",
"{.	c #080000",
"].	c #040001",
"^.	c #00000E",
"/.	c #0C1323",
"(.	c #F8F1E9",
"_.	c #797365",
":.	c #010100",
"<.	c #454F51",
"[.	c #CFDADE",
"}.	c #BFB8B2",
"|.	c #2E2520",
"1.	c #0B0100",
"2.	c #000008",
"3.	c #00030F",
"4.	c #060D1D",
"5.	c #B6AFA5",
"6.	c #161712",
"7.	c #0A100E",
"8.	c #B3BBBD",
"9.	c #7E8484",
"0.	c #313330",
"a.	c #25251D",
"b.	c #241F19",
"c.	c #181109",
"d.	c #0A0000",
"e.	c #070304",
"f.	c #040C19",
"g.	c #F8F0E3",
"h.	c #403931",
"i.	c #000206",
"j.	c #98A1A8",
"k.	c #CDD3D3",
"l.	c #292B28",
"m.	c #040100",
"n.	c #0C0600",
"o.	c #070506",
"p.	c #010207",
"q.	c #050D1A",
"r.	c #FAF6EB",
"s.	c #817B6F",
"t.	c #070601",
"u.	c #464E59",
"v.	c #B3B4AE",
"w.	c #6B6A68",
"x.	c #84807D",
"y.	c #BDBAAB",
"z.	c #999685",
"A.	c #373026",
"B.	c #B7B3A7",
"C.	c #040400",
"D.	c #1A1E1F",
"E.	c #A7AEBE",
"F.	c #524B41",
"G.	c #020003",
"H.	c #000106",
"I.	c #00010B",
"J.	c #060E1B",
"K.	c #E1D7CB",
"L.	c #484137",
"M.	c #030909",
"N.	c #5D666F",
"O.	c #504941",
"P.	c #060407",
"Q.	c #050D18",
"R.	c #FAF1EA",
"S.	c #8C8074",
"T.	c #040D16",
"U.	c #C5D3E0",
"V.	c #534F46",
"W.	c #020308",
"X.	c #000711",
"Y.	c #EEEAE1",
"Z.	c #7D766E",
"`.	c #150B02",
" +	c #3A424F",
".+	c #2B2620",
"++	c #020001",
"@+	c #010206",
"#+	c #050912",
"$+	c #656972",
"%+	c #E6EAF3",
"&+	c #D5D1C6",
"*+	c #48443B",
"=+	c #0E0903",
"-+	c #080307",
";+	c #111725",
">+	c #AFBBC9",
",+	c #7D7970",
"'+	c #2C251F",
")+	c #010101",
"!+	c #020106",
"~+	c #05050D",
"{+	c #0E111A",
"]+	c #595C63",
"^+	c #120B01",
"/+	c #070400",
"(+	c #070206",
"_+	c #010005",
":+	c #04040E",
"<+	c #3F464E",
"[+	c #DAE5E7",
"}+	c #363427",
"|+	c #090601",
"1+	c #0B0704",
"2+	c #060608",
"3+	c #030409",
"4+	c #03030B",
"5+	c #070A0F",
"6+	c #AFB2B7",
"7+	c #C1B9AE",
"8+	c #6F6C67",
"9+	c #747474",
"0+	c #6F7075",
"a+	c #6A6A72",
"b+	c #727177",
"c+	c #ABACB0",
"d+	c #79776B",
"e+	c #787471",
"f+	c #6D6C6A",
"g+	c #6A6965",
"h+	c #777672",
"i+	c #707070",
"j+	c #6A6A6C",
"k+	c #717075",
"l+	c #707176",
"m+	c #6B6C71",
"n+	c #828387",
"o+	c #B7AFA4",
"p+	c #F0F0F0",
"q+	c #E6E6E6",
"r+	c #DBDBDB",
"s+	c #D5D5D5",
"t+	c #CECECE",
"u+	c #CACACA",
"v+	c #C8C8C8",
"w+	c #B5B5B5",
"x+	c #969696",
"y+	c #7B7B7B",
"z+	c #636363",
"A+	c #525252",
"B+	c #494949",
"C+	c #4D4D4D",
"D+	c #565656",
"E+	c #606060",
"F+	c #656565",
"G+	c #626262",
"H+	c #585858",
"I+	c #474747",
"J+	c #3E3E3E",
"K+	c #333333",
"L+	c #303030",
"M+	c #292929",
"N+	c #272727",
"O+	c #232323",
"P+	c #252525",
"Q+	c #262626",
"R+	c #3C3C3C",
"S+	c #4E4E4E",
"T+	c #686868",
"U+	c #FF0000",
"                                                      ",
"                                  . + @ #             ",
"                                $ % & * =             ",
"                              - ; > , ' )             ",
"                            ! ~ { ] ^ / (             ",
"                          _ : < [ } | 1 2             ",
"                          3 4 5 6 } 7 8 9             ",
"                        0 a b c d e f g h             ",
"                        i j k l m } f n o             ",
"                        p l q r s } t u v             ",
"                    w x y z   A c B f g C             ",
"                    D E F G   H k I J K L             ",
"                  M N y O     P Q y R S T             ",
"                U V W X Y     Z ` m ^  ...            ",
"              +.@.#.$.%.      &.*.=.-.;.>.            ",
"              ,.'.).!.        ~.{.].R ^./.            ",
"            (._.:.<.[.      }.|.1.m 2.3.4.            ",
"            5.6.7.8.9.0.a.b.c.` d.e.2.' f.            ",
"          g.h.i.j.k.l.> m.d n.{.k o.p.' q.            ",
"        r.s.t.u.    v.w.x.y.z.A.y B p.3.q.            ",
"        B.C.D.E.              F.c G.H.I.J.            ",
"      K.L.M.N.                O.y P.p.f Q.            ",
"    R.S.< T.U.                V.{ G.W.t X.            ",
"  Y.Z.`.c  +                  .+I ++@+J #+$+%+        ",
"&+*+=+{.-+;+>+            ,+'+m 6 )+!+~+J {+]+        ",
"^+/+m (+_+:+<+[+        }+|+m 1+B > 2+^ 3+4+5+6+      ",
"7+8+9+0+a+b+c+          d+e+f+g+h+i+j+k+l+m+n+        ",
"o+                                                    ",
"      p+q+r+s+t+u+v+                                  ",
"w+x+y+z+A+B+B+C+D+E+F+G+H+I+J+K+L+M+N+O+P+Q+M+L+R+S+T+",
"U+U+U+U+U+U+U+U+U+U+U+U+U+U+U+U+U+U+U+U+U+U+U+U+U+U+U+",
"U+U+U+U+U+U+U+U+U+U+U+U+U+U+U+U+U+U+U+U+U+U+U+U+U+U+U+"};
