/* XPM */
static const char * menu_xpm[] = {
"32 31 25 1",
" 	c None",
".	c #5F5F5F",
"+	c #3F3F3F",
"@	c #555555",
"#	c #434343",
"$	c #404040",
"%	c #838383",
"&	c #797979",
"*	c #5D5D5D",
"=	c #474747",
"-	c #595959",
";	c #464646",
">	c #4D4D4D",
",	c #5C5C5C",
"'	c #5A5A5A",
")	c #616161",
"!	c #7F7F7F",
"~	c #868686",
"{	c #484848",
"]	c #515151",
"^	c #686868",
"/	c #5B5B5B",
"(	c #4C4C4C",
"_	c #848484",
":	c #5E5E5E",
"                                ",
".+++++++++++++++++++++++++++++@ ",
"#+++++++++++++++++++++++++++++$ ",
"+++++++++++++++++++++++++++++++%",
"+++++++++++++++++++++++++++++++%",
"+++++++++++++++++++++++++++++++&",
"*+++++++++++++++++++++++++++++= ",
" -;;;;;;;;;;;;;;;;;;;;;;;;;;>,  ",
"                                ",
"                                ",
"                                ",
"                                ",
" .''''''''''''''''''''''''''-.) ",
">++++++++++++++++++++++++++++++ ",
"+++++++++++++++++++++++++++++++!",
"+++++++++++++++++++++++++++++++%",
"+++++++++++++++++++++++++++++++~",
"{+++++++++++++++++++++++++++++$ ",
" ,>>>>>>>>>>>>>>>>>>>>>>>>>>>]. ",
"                                ",
"                                ",
"                                ",
"                                ",
" ^]]]]]]]]]]]]]]]]]]]]]]]]]]]'  ",
"/+$$$$$$$$$$$$$$$$$$$$$$$$$$$+( ",
"+++++++++++++++++++++++++++++++ ",
"+++++++++++++++++++++++++++++++%",
"+++++++++++++++++++++++++++++++_",
"#++++++++++++++++++++++++++++++ ",
",+++++++++++++++++++++++++++++: ",
"                                "};
