/* XPM */
static const char * pyc_logo32_xpm[] = {
"32 32 321 2",
"  	c None",
". 	c #4B574A",
"+ 	c #535553",
"@ 	c #535353",
"# 	c #565656",
"$ 	c #5C5C5C",
"% 	c #646464",
"& 	c #505D5E",
"* 	c #4F574F",
"= 	c #405840",
"- 	c #404D40",
"; 	c #5E5E5E",
"> 	c #4D564D",
", 	c #535C59",
"' 	c #3F5E3F",
") 	c #3F5C3F",
"! 	c #727274",
"~ 	c #7B8288",
"{ 	c #656565",
"] 	c #535754",
"^ 	c #3E623E",
"/ 	c #306630",
"( 	c #A2BCD4",
"_ 	c #397BAD",
": 	c #414141",
"< 	c #424242",
"[ 	c #666666",
"} 	c #575757",
"| 	c #505750",
"1 	c #647564",
"2 	c #8CA9C7",
"3 	c #779BBE",
"4 	c #5580AA",
"5 	c #595959",
"6 	c #899388",
"7 	c #4683B3",
"8 	c #C6C5AA",
"9 	c #E3D79F",
"0 	c #424042",
"a 	c #5A5A5A",
"b 	c #676767",
"c 	c #585858",
"d 	c #4F624F",
"e 	c #9BA7B6",
"f 	c #F8E491",
"g 	c #FFE170",
"h 	c #329C32",
"i 	c #329B32",
"j 	c #686868",
"k 	c #545454",
"l 	c #FDEAB4",
"m 	c #FFE398",
"n 	c #696969",
"o 	c #339B33",
"p 	c #423E42",
"q 	c #3C3C3C",
"r 	c #3E3E3E",
"s 	c #3B3B3B",
"t 	c #3F3F3F",
"u 	c #3C3D3C",
"v 	c #434043",
"w 	c #4C4A4C",
"x 	c #B6B6B6",
"y 	c #E8E8E8",
"z 	c #ECF0F4",
"A 	c #E8EDF3",
"B 	c #E1E8F0",
"C 	c #E7ECF1",
"D 	c #EBEFF3",
"E 	c #E6E6E6",
"F 	c #9F9F9F",
"G 	c #C8DCC8",
"H 	c #D0DCE9",
"I 	c #6998C3",
"J 	c #4787B9",
"K 	c #4584B6",
"L 	c #4382B3",
"M 	c #417EAF",
"N 	c #3E7BAC",
"O 	c #6B91B6",
"P 	c #E2E7EE",
"Q 	c #B3B3B3",
"R 	c #3F3D3F",
"S 	c #F2F3F4",
"T 	c #548FBF",
"U 	c #D1DBE8",
"V 	c #C2D0E0",
"W 	c #4482B4",
"X 	c #417FB0",
"Y 	c #3F7CAD",
"Z 	c #3C79A9",
"` 	c #3A76A6",
" .	c #5C84AB",
"..	c #EDEEEE",
"+.	c #393639",
"@.	c #F5F8FB",
"#.	c #4687BA",
"$.	c #D3DDE9",
"%.	c #C4D1E0",
"&.	c #4280B1",
"*.	c #3F7CAE",
"=.	c #3D7AAA",
"-.	c #3B76A7",
";.	c #3873A4",
">.	c #3671A1",
",.	c #EEF0F3",
"'.	c #2D992D",
").	c #0D950D",
"!.	c #F4F7FB",
"~.	c #4183B6",
"{.	c #4181B4",
"].	c #3F7EB1",
"^.	c #3C7CAE",
"/.	c #3C7AAB",
"(.	c #3B77A7",
"_.	c #3974A4",
":.	c #346E9D",
"<.	c #EFF0F3",
"[.	c #717171",
"}.	c #D4D4D5",
"|.	c #D5DDE7",
"1.	c #D3DCEA",
"2.	c #CFDAE6",
"3.	c #C2CFDF",
"4.	c #C2CFDE",
"5.	c #C1CEDD",
"6.	c #92AAC4",
"7.	c #3974A5",
"8.	c #3671A2",
"9.	c #346F9E",
"0.	c #316B9A",
"a.	c #EEECE5",
"b.	c #FFF6D7",
"c.	c #FFF7D9",
"d.	c #FFFCF3",
"e.	c #FFFFFF",
"f.	c #636263",
"g.	c #ECEEF0",
"h.	c #86AACD",
"i.	c #4989BC",
"j.	c #4786B8",
"k.	c #4483B5",
"l.	c #4281B2",
"m.	c #407EAF",
"n.	c #3C78A9",
"o.	c #3975A5",
"p.	c #3772A2",
"q.	c #356F9F",
"r.	c #326B9A",
"s.	c #316A99",
"t.	c #EDE7CE",
"u.	c #FFE873",
"v.	c #FFE771",
"w.	c #FFE77B",
"x.	c #FFFCF1",
"y.	c #BDD5BD",
"z.	c #BCCDE1",
"A.	c #4A8ABD",
"B.	c #4887B9",
"C.	c #4584B5",
"D.	c #4381B3",
"E.	c #417EB0",
"F.	c #3A75A6",
"G.	c #3570A0",
"H.	c #326C9B",
"I.	c #326A98",
"J.	c #EEE8CE",
"K.	c #FFE770",
"L.	c #FFE56B",
"M.	c #FFE366",
"N.	c #FFEFB9",
"O.	c #E5E5E5",
"P.	c #88A9CC",
"Q.	c #4585B6",
"R.	c #3E7BAD",
"S.	c #3873A3",
"T.	c #336D9C",
"U.	c #326B99",
"V.	c #326A99",
"W.	c #537AA2",
"X.	c #FCF0C8",
"Y.	c #FFE468",
"Z.	c #FFE264",
"`.	c #FFE15F",
" +	c #FFE587",
".+	c #3F3C3F",
"++	c #F7F7F6",
"@+	c #558EBD",
"#+	c #4685B7",
"$+	c #4482B3",
"%+	c #417FB1",
"&+	c #3D79AA",
"*+	c #3975A6",
"=+	c #3170A2",
"-+	c #2E6E9F",
";+	c #2B6B9B",
">+	c #286899",
",+	c #286898",
"'+	c #5E82A7",
")+	c #DBDDDB",
"!+	c #FFE67F",
"~+	c #FFE262",
"{+	c #FFE05D",
"]+	c #FFDF58",
"^+	c #FFDD51",
"/+	c #FFFFFE",
"(+	c #269926",
"_+	c #4084B7",
":+	c #3F7DAE",
"<+	c #A2B5CB",
"[+	c #EDEAD7",
"}+	c #FBF2CF",
"|+	c #FBF3CF",
"1+	c #FBF2CE",
"2+	c #FFF2C4",
"3+	c #FFE57B",
"4+	c #FFE05B",
"5+	c #FFDE56",
"6+	c #FFDC52",
"7+	c #FFD949",
"8+	c #FFFDF5",
"9+	c #403E40",
"0+	c #F3F3F3",
"a+	c #6A95BE",
"b+	c #4280B2",
"c+	c #3D7AAB",
"d+	c #8EA7C3",
"e+	c #FEF2C1",
"f+	c #FFE56C",
"g+	c #FFE263",
"h+	c #FFDF59",
"i+	c #FFDD54",
"j+	c #FFDB4F",
"k+	c #FFD84B",
"l+	c #E0E0E0",
"m+	c #97AFCB",
"n+	c #407DAE",
"o+	c #3C78A8",
"p+	c #CBD2DB",
"q+	c #FFE875",
"r+	c #FFE872",
"s+	c #FFE161",
"t+	c #FFE05C",
"u+	c #FFDE57",
"v+	c #FFDA4E",
"w+	c #FFD848",
"x+	c #FFD643",
"y+	c #FFE08E",
"z+	c #423F42",
"A+	c #B5D0B5",
"B+	c #D0D9E5",
"C+	c #D0D5D7",
"D+	c #FFE66E",
"E+	c #FFE364",
"F+	c #FFE15E",
"G+	c #FFDF5A",
"H+	c #FFDD55",
"I+	c #FFDB50",
"J+	c #FFD94B",
"K+	c #FFD846",
"L+	c #FFD641",
"M+	c #FFD43D",
"N+	c #FFF0CE",
"O+	c #5C5B5C",
"P+	c #F2F2F2",
"Q+	c #B0C0D3",
"R+	c #4C7EAB",
"S+	c #3573A4",
"T+	c #D0D5D6",
"U+	c #FFE76F",
"V+	c #FFE367",
"W+	c #FFDE58",
"X+	c #FFDD53",
"Y+	c #FFDB4D",
"Z+	c #FFD948",
"`+	c #FFD843",
" @	c #FFD63E",
".@	c #FFE5A3",
"+@	c #FFFEFD",
"@@	c #797979",
"#@	c #DFDFDF",
"$@	c #FEFDFD",
"%@	c #FFE469",
"&@	c #FFE365",
"*@	c #FFE89A",
"=@	c #FFF0C8",
"-@	c #FFF0C7",
";@	c #FFEFC6",
">@	c #FFEEC6",
",@	c #FFFDF9",
"'@	c #303030",
")@	c #FFFEF6",
"!@	c #FFE05E",
"~@	c #FFDB65",
"{@	c #FFDB71",
"]@	c #FFD43C",
"^@	c #FFFAEF",
"/@	c #3A3A3A",
"(@	c #FDFCF6",
"_@	c #FFDA4D",
":@	c #FFD743",
"<@	c #FFF4DB",
"[@	c #FFFBF2",
"}@	c #FFD438",
"|@	c #E2E2E2",
"1@	c #FFEAAA",
"2@	c #FFD94A",
"3@	c #FFD541",
"4@	c #FFDE83",
"5@	c #FFE29A",
"6@	c #FFE299",
"7@	c #FEFEFF",
"8@	c #FFFFFD",
"9@	c #FFF2D1",
"0@	c #FFE395",
"a@	c #FFD85C",
"b@	c #FFD433",
"c@	c #FFD859",
"d@	c #FFE090",
"e@	c #FFEFCC",
"f@	c #FFFEFC",
". + @ # $ %                                                     ",
"& * = = - @ ;                                                   ",
"> , ' ) ! ~ { { { { { { { { { { { { { { { {                     ",
"  ] ^ / ( _ { : < < < < < < < < < < < : [ } [                   ",
"  | 1 2 3 4 { < < < < < < < < < < < < : [ : 5 [                 ",
"  # 6 7 8 9 { < < 0 0 < < 0 0 < < 0 < : [ < < a b               ",
"  c d e f g { < 0 h i 0 0 h i 0 0 h 0 : [ < < < $ j             ",
"    c k l m { < < 0 0 < < 0 0 < < 0 < : [ : : : : $ n           ",
"            { < < 0 0 0 0 < 0 0 < < < : [ [ [ [ [ [ {           ",
"            { < 0 h o o i p h i 0 < < < < < < < < : {           ",
"            { < < 0 0 0 0 < 0 0 < < < q r s t u < : {           ",
"            { < < 0 0 < 0 0 < v w x y z A B C D E F {           ",
"            { < 0 h i p h i p h G H I J K L M N O P Q           ",
"            { < < 0 0 < 0 0 < R S T U V W X Y Z `  ...          ",
"            { < < 0 < 0 < 0 v +.@.#.$.%.&.*.=.-.;.>.,.          ",
"            { < 0 h p h p h '.).!.~.{.].^./.(._.>.:.<.          ",
"            { < < 0 < 0 [.}.|.1.2.V 3.4.5.6.7.8.9.0.a.b.c.d.e.  ",
"            { < < 0 0 f.g.h.i.j.k.l.m.N n.o.p.q.r.s.t.u.v.w.x.  ",
"            { < 0 h i y.z.A.B.C.D.E.N n.F.p.G.H.s.I.J.K.L.M.N.e.",
"            { < < 0 0 O.P.B.Q.D.X R.Z ` S.q.T.U.V.W.X.Y.Z.`. +e.",
"            { < < 0 .+++@+#+$+%+Y &+*+=+-+;+>+,+'+)+!+~+{+]+^+/+",
"            { < 0 h (+e._+k.%+:+=.<+[+}+|+|+}+1+2+3+`.4+5+6+7+8+",
"            { < < 0 9+0+a+b+:+c+d+e+u.u.u.v.f+Y.g+{+h+i+j+7+k+/+",
"            { < < 0 0 l+m+n+c+o+p+q+u.r+K.L.M.s+t+u+6+v+w+x+y+e.",
"            { < z+h i A+B+N n.o.C+r+r+D+Y.E+F+G+H+I+J+K+L+M+N+e.",
"            { < < 0 0 O+P+Q+R+S+T+U+f+V+~+F+W+X+Y+Z+`+ @L+.@+@  ",
"            { < < < < < @@#@$@e.8+%@&@`.G+*@=@-@;@>@,@e.e.e.    ",
"            { < < < < < < < q '@)@~+!@h+i+j+7+~@{@]@^@          ",
"            { : < < < < < < < /@(@h+u+6+_@Z+:@<@[@}@[@          ",
"            { { { { { { { { { { |@1@I+2@K+3@]@4@5@6@7@          ",
"                                  8@9@0@a@b@c@d@e@f@            ",
"                                    e.e.e.e.e.e.e.              "};
