/* XPM */
static const char * script_load_xpm[] = {
"32 32 36 1",
" 	c #FFFFFF",
".	c #FFED04",
"+	c #F0F1EF",
"@	c #E3E38B",
"#	c #E2E00F",
"$	c #FCF120",
"%	c #FFFCCA",
"&	c #FFFAA4",
"*	c #E6DF2A",
"=	c #C9C955",
"-	c #DAD781",
";	c #B5B92E",
">	c #FFFCC0",
",	c #DAD361",
"'	c #FEFEFE",
")	c #EFEAA9",
"!	c #F2EC2E",
"~	c #EBE8F0",
"{	c #FEED07",
"]	c #EDEFEC",
"^	c #E0E0DF",
"/	c #B9C6A6",
"(	c #CCD4C3",
"_	c #A7B840",
":	c #FAFAF9",
"<	c #F4F5F3",
"[	c #F6E80E",
"}	c #D6D64C",
"|	c #E8E201",
"1	c #E7E30E",
"2	c #EFF1ED",
"3	c #FCFCFD",
"4	c #F0F2EE",
"5	c #F2F3F1",
"6	c #FBFBFB",
"7	c #B5BCAD",
"            .........           ",
"         ..............+        ",
"       ..................       ",
"      .....................     ",
"     .......................    ",
"    .........................   ",
"   ...........................  ",
"  ............................. ",
"  ..............................",
" .......... @...................",
" .........#   $.................",
" ..........    %................",
"...........      &..............",
"...........        *............",
"...........          =..........",
"...........           -;........",
"...........            >,.......",
"...........           ')!.......",
"...........          ~..........",
"...........        '{...........",
"]..........       ^.............",
" ..........     '/..............",
" ..........    (_...............",
" :.........  <[................ ",
"  ......... }.|................ ",
"   ........1..................  ",
"   2.........................3  ",
"    ........................4   ",
"     .......................    ",
"      5...................6     ",
"        7................       ",
"          .............         "};
