/* XPM */
static const char * script_new_xpm[] = {
"32 28 422 2",
"  	c #D9D9D6",
". 	c #CBCAD3",
"+ 	c #BABACB",
"@ 	c #B8B8CA",
"# 	c #BFBFCF",
"$ 	c #C4C4D1",
"% 	c #B0B2C7",
"& 	c #BFBECE",
"* 	c #CDCCCF",
"= 	c #B6B5C9",
"- 	c #B2B1C6",
"; 	c #AFAEC6",
"> 	c #C1C1CF",
", 	c #B4B4C8",
"' 	c #AFAEC5",
") 	c #CDCBD3",
"! 	c #D1CAD3",
"~ 	c #D0C9D3",
"{ 	c #CBBFCE",
"] 	c #C2AFC5",
"^ 	c #CFC8D3",
"/ 	c #CFC7D2",
"( 	c #CABFCE",
"_ 	c #C9BDCD",
": 	c #D6D4D9",
"< 	c #C8BBCB",
"[ 	c #C3B0C6",
"} 	c #CCC3D0",
"| 	c #C9BCCC",
"1 	c #D3CFD6",
"2 	c #C4B2C7",
"3 	c #F0F0EC",
"4 	c #E3E1EE",
"5 	c #C3C4E1",
"6 	c #C9CAE4",
"7 	c #CCCDE2",
"8 	c #DBD3E4",
"9 	c #D6CAE2",
"0 	c #E5E5EB",
"a 	c #F4F4F6",
"b 	c #E7E7F2",
"c 	c #E9E9F3",
"d 	c #E1E1EF",
"e 	c #EDEDF5",
"f 	c #E6E6F1",
"g 	c #EAE9F3",
"h 	c #F4F4F7",
"i 	c #F7F4F9",
"j 	c #F6F3F8",
"k 	c #F5F1F7",
"l 	c #F3EDF5",
"m 	c #F4EFF6",
"n 	c #F2EBF4",
"o 	c #F7F5F9",
"p 	c #F6F2F7",
"q 	c #F6F4F8",
"r 	c #F3ECF4",
"s 	c #F5F0F6",
"t 	c #E9E9E9",
"u 	c #F7F6F7",
"v 	c #EFEFF5",
"w 	c #F6F7F9",
"x 	c #F4F4F5",
"y 	c #FDFBFC",
"z 	c #FFFBFD",
"A 	c #FEFFFD",
"B 	c #FFFFFF",
"C 	c #ECECEC",
"D 	c #ECEBEA",
"E 	c #EDEEED",
"F 	c #F4F4F3",
"G 	c #EDEDEC",
"H 	c #E7E7E7",
"I 	c #EAEAE9",
"J 	c #F1F4F5",
"K 	c #EEF2F3",
"L 	c #E0ECE4",
"M 	c #D3E4D7",
"N 	c #E0EDE5",
"O 	c #DEEBDD",
"P 	c #D3E4D3",
"Q 	c #DBEADC",
"R 	c #D7E9D6",
"S 	c #F2FAF3",
"T 	c #EEEEEB",
"U 	c #DDDCE5",
"V 	c #BBBAD5",
"W 	c #C4C6D8",
"X 	c #C5C6D7",
"Y 	c #C8C9DD",
"Z 	c #DADBD8",
"` 	c #DBDCDA",
" .	c #DDDFDC",
"..	c #EDF1EE",
"+.	c #F0F2F0",
"@.	c #F0F0F0",
"#.	c #F2F1F2",
"$.	c #F7F7F7",
"%.	c #F5F6F6",
"&.	c #F2F0F1",
"*.	c #F9F9F9",
"=.	c #F6F6F6",
"-.	c #EFEFF0",
";.	c #FEF9FE",
">.	c #FEFEFE",
",.	c #F6F6F5",
"'.	c #EDECEC",
").	c #EFEFEF",
"!.	c #F2F2F2",
"~.	c #EBEBEC",
"{.	c #F2F2F0",
"].	c #F0EFEE",
"^.	c #D7D6D4",
"/.	c #D6D6D5",
"(.	c #CFCDCB",
"_.	c #C7C6C7",
":.	c #E0DFE0",
"<.	c #D4D3D3",
"[.	c #D7D6D6",
"}.	c #C7C7C7",
"|.	c #CECECF",
"1.	c #C9C8C9",
"2.	c #CCCBCD",
"3.	c #D1D2D1",
"4.	c #DBDBDC",
"5.	c #D2D0D1",
"6.	c #D9D9D9",
"7.	c #D5D4D4",
"8.	c #CACACA",
"9.	c #D1D1D0",
"0.	c #CCCBCB",
"a.	c #CBCBCC",
"b.	c #D4D4D5",
"c.	c #EBECEC",
"d.	c #E8E6E8",
"e.	c #D8D7D6",
"f.	c #C7C6C6",
"g.	c #CDCDCC",
"h.	c #CBCBCB",
"i.	c #F8F7F7",
"j.	c #F3F3F3",
"k.	c #EAEAEA",
"l.	c #F1F1F1",
"m.	c #F4F4F4",
"n.	c #ECECED",
"o.	c #F5F5F6",
"p.	c #F3F2F2",
"q.	c #F2F2F3",
"r.	c #F1F1F2",
"s.	c #F6F7F7",
"t.	c #F2F3F3",
"u.	c #F3F4F3",
"v.	c #F8F8F8",
"w.	c #F4F5F5",
"x.	c #E8E8E8",
"y.	c #FCFCFC",
"z.	c #EAE9E9",
"A.	c #E6E5E6",
"B.	c #E5E5E5",
"C.	c #FCFDFC",
"D.	c #ECEDEC",
"E.	c #EAEBEB",
"F.	c #E1E1E1",
"G.	c #E8E8E9",
"H.	c #E4E3E3",
"I.	c #EEEEEE",
"J.	c #F1F1F0",
"K.	c #E6E5E5",
"L.	c #DFDEDE",
"M.	c #E5E5E4",
"N.	c #E4E4E3",
"O.	c #F3F3F4",
"P.	c #F4F3F3",
"Q.	c #F0F0F1",
"R.	c #EFEFEE",
"S.	c #F7F6F6",
"T.	c #F2F1F1",
"U.	c #E7E6E7",
"V.	c #E8E9E8",
"W.	c #E8E7E7",
"X.	c #E5E4E4",
"Y.	c #F5F4F4",
"Z.	c #E3E2E2",
"`.	c #F0F1F0",
" +	c #E9E9E8",
".+	c #EDEDED",
"++	c #F3F3F2",
"@+	c #E0DFDF",
"#+	c #D4D4D4",
"$+	c #CBCACA",
"%+	c #C8C8C7",
"&+	c #CDCDCE",
"*+	c #D1D0D0",
"=+	c #CAC9C9",
"-+	c #E3E3E3",
";+	c #D3D2D3",
">+	c #D5D6D5",
",+	c #C9C7C7",
"'+	c #C6C5C6",
")+	c #CBCACC",
"!+	c #CFCBCD",
"~+	c #DEE0E1",
"{+	c #E9EDEE",
"]+	c #D9D6D7",
"^+	c #D2CFD2",
"/+	c #C6C4C6",
"(+	c #D5D3D6",
"_+	c #E0DEE0",
":+	c #DAD9DB",
"<+	c #D9D8D9",
"[+	c #CCCACC",
"}+	c #C6C3C5",
"|+	c #C4C3C3",
"1+	c #D0CFD0",
"2+	c #EBF1F1",
"3+	c #E5E7E6",
"4+	c #ECEBEB",
"5+	c #E4E4E5",
"6+	c #DCDCDB",
"7+	c #DEDEDE",
"8+	c #DDDDDD",
"9+	c #E3E1E1",
"0+	c #D5D4D5",
"a+	c #D5D5D6",
"b+	c #D8D9D9",
"c+	c #F2EAF2",
"d+	c #F2E5F2",
"e+	c #EFDEEE",
"f+	c #F5E8F6",
"g+	c #F0E4F1",
"h+	c #EFE2EE",
"i+	c #EFE1EE",
"j+	c #ECDBEA",
"k+	c #EBDAEB",
"l+	c #F2E2F2",
"m+	c #EEDFEE",
"n+	c #EDE1ED",
"o+	c #E7D6E6",
"p+	c #ECDFEC",
"q+	c #EEEDEE",
"r+	c #FBFBFB",
"s+	c #F8F8F9",
"t+	c #EBEBEB",
"u+	c #EBEAEB",
"v+	c #EEEEED",
"w+	c #F6FDFC",
"x+	c #FBFFFE",
"y+	c #FCFFFF",
"z+	c #F9FFFE",
"A+	c #F7FDFD",
"B+	c #F4F7F7",
"C+	c #E0DEDE",
"D+	c #D8D8D8",
"E+	c #C2C0C0",
"F+	c #CFCECF",
"G+	c #CECECE",
"H+	c #CAC9CB",
"I+	c #C8C7C8",
"J+	c #C5C5C5",
"K+	c #D2D0D0",
"L+	c #DADADA",
"M+	c #DCE0E0",
"N+	c #DEE2E2",
"O+	c #D0D2D2",
"P+	c #CCD0D0",
"Q+	c #DEE2E3",
"R+	c #EDEFEF",
"S+	c #FCFBFC",
"T+	c #FDFDFD",
"U+	c #E6E6E6",
"V+	c #DDDDDE",
"W+	c #EAE9EA",
"X+	c #D9D9D8",
"Y+	c #DAD9DA",
"Z+	c #D8D6D6",
"`+	c #DEDDDE",
" @	c #DBDADB",
".@	c #DDDBDC",
"+@	c #DDDCDC",
"@@	c #D6D5D5",
"#@	c #D6D4D5",
"$@	c #E2E2E3",
"%@	c #DEDDDD",
"&@	c #D8D8D7",
"*@	c #DAD9D8",
"=@	c #E2E0E0",
"-@	c #DDDCDD",
";@	c #F6F5F5",
">@	c #EDEEEE",
",@	c #F7F7F6",
"'@	c #F3F2F1",
")@	c #EFEEEF",
"!@	c #E7E6E6",
"~@	c #F9F9F8",
"{@	c #E8E8E7",
"]@	c #E9E8E9",
"^@	c #E1DFE0",
"/@	c #D5D6D6",
"(@	c #D4D5D4",
"_@	c #CBCBCA",
":@	c #CFCFD0",
"<@	c #D4D5D5",
"[@	c #D9DCDC",
"}@	c #E9E8E8",
"|@	c #F5F6F5",
"1@	c #EAEAEB",
"2@	c #E8E7E8",
"3@	c #D4D2D3",
"4@	c #DADADB",
"5@	c #D5D4D3",
"6@	c #DCDCDD",
"7@	c #E2E2E2",
"8@	c #E2E3E2",
"9@	c #E2E3E3",
"0@	c #E7E8E8",
"a@	c #E0E0E0",
"b@	c #F6FCFC",
"c@	c #E0E0DF",
"d@	c #F2F7F7",
"e@	c #F3F4F4",
"f@	c #F5F5F5",
"g@	c #ECEDED",
"h@	c #EEEDED",
"i@	c #F6F5F4",
"j@	c #EDEDEE",
"k@	c #FCFAFC",
"l@	c #FAF6FA",
"m@	c #F0F1F1",
"n@	c #E1E0E0",
"o@	c #D7D8D8",
"p@	c #CDCCCD",
"q@	c #D0D1D0",
"r@	c #CDCCCC",
"s@	c #D2D2D3",
"t@	c #D7D7D7",
"u@	c #D1D2D2",
"v@	c #D6D5D4",
"w@	c #D3D2D2",
"x@	c #DFE0E0",
"y@	c #E2E9E9",
"z@	c #CFCECE",
"A@	c #C3C2C2",
"B@	c #DEDDDF",
"C@	c #EBF1F0",
"D@	c #DDE0E0",
"E@	c #FDFDFE",
"F@	c #FDFBFD",
"G@	c #F1F0F0",
"H@	c #F7F8F7",
"I@	c #F5F5F4",
"J@	c #F5F8F8",
"K@	c #F5F7F7",
"L@	c #FAFAFA",
"M@	c #FBFBFA",
"N@	c #E7E5E5",
"O@	c #DCDDDE",
"P@	c #DFE0DF",
"Q@	c #D8D8D9",
"R@	c #D9DADA",
"S@	c #D8D7D7",
"T@	c #DEE0E0",
"U@	c #DBDCDC",
"V@	c #E6E6E7",
"W@	c #E0E1E1",
"X@	c #F0EFF0",
"Y@	c #F0EEEE",
"Z@	c #E7E7E8",
"`@	c #DDDDDC",
" #	c #DFDEE0",
".#	c #E2E1E1",
"+#	c #DDDEDE",
"@#	c #CAC9C8",
"##	c #D4D3D4",
"$#	c #DCDADA",
"%#	c #CDCECE",
"&#	c #DBDBDB",
"*#	c #E0E4E3",
"=#	c #DEE1E1",
"-#	c #E5E4E5",
";#	c #F0EFEF",
">#	c #F7FBFB",
",#	c #F5FAFA",
"'#	c #FBFEFE",
")#	c #F1F6F5",
"!#	c #FDFCFC",
"~#	c #F1F0F1",
"{#	c #F0F0EF",
"]#	c #F4F6F6",
"^#	c #ECECEB",
"/#	c #EFEEEE",
"(#	c #FEFCFE",
"_#	c #FDFAFD",
":#	c #E5E3E3",
"<#	c #DADBDB",
"[#	c #D2D1D1",
"}#	c #DBDADC",
"|#	c #D6D6D6",
"1#	c #D3D3D3",
"2#	c #D9D8D7",
"3#	c #DAD8D9",
"4#	c #E2E6E6",
"5#	c #DEDFE0",
"6#	c #D0CFCF",
"7#	c #E0E0E1",
"8#	c #ECEFEE",
"9#	c #E3E3E4",
"0#	c #FBFAFC",
"a#	c #F9F6F9",
"b#	c #EBEBEA",
"c#	c #E4E4E4",
"d#	c #E3E2E3",
"e#	c #EFF0F0",
"f#	c #F5FCFC",
"g#	c #F5F7F6",
"h#	c #FBFFFF",
"i#	c #E8E9E9",
"j#	c #E4E5E5",
"k#	c #DFDFE0",
"l#	c #E4E3E4",
"m#	c #F2F1F0",
"n#	c #E6E6E5",
"o#	c #DFDFDE",
"  . + @ # $ % & * = - ; > , ' ) ! ~ { ] ^ / ( _ : < [ } | ^ 1 2 ",
"3 4 5 6 7 8 9 0 a b c d e f g h i j k l k i m n o p n q r s o m ",
"t u v w x y z A B B B B B B B B B B B B B B B B B B B B B B B B ",
"C D E F G B B B B B B B B B B B B B B B B B B B B B B B B B B B ",
"H B B B B B B B B B B B B B B B B B B B B B B B B B B B B B B B ",
"I J K L M N O P Q R S B B B B B B B B B B B B B B B B B B B B B ",
"T U V W X Y Z `  ...+.@.#.$.%.x &.*.B $.=.@.=.-.B ;.>.$.,.'.).!.",
"~.{.].^./.(._.:.<.[.}.|.1.2.3.4.5.6.7.8.9.0.a.b.c.d.e.f.g.f.h.|.",
"H >.B i.j.k.l.C C m.l.!.n.@.).o.m.p.I C G q.r.s.=.t.@.!.u.v.u w.",
"x.y.B @.z.A.B.n.C.D.E.F.:.G.H.I.J.C K.L.M.N.O.>.B B B B B B B B ",
"H y.B P.Q.R.z.H x.S.$.l.T.U.V.t W.X.Y.p.I.t k.Z.o.j.`. +.+x.l.++",
"H y.B @+#+$+%+&+*+=+-+;+>+,+'+)+!+~+{+]+^+/+(+_+:+<+[+}+|+1+2+3+",
"x.y.B 4+5+Z.6+7+8+9+H.0+a+b+c+d+e+f+g+h+i+j+k+l+m+n+o+p+q+r+B >.",
"x.y.B Y.l.t )..+s+y.l.++t+u+I.v+t+t+m.w+x+y+z+A+B+B B B B B B B ",
"x.y.B C+D+E+a.}.F.7.F+G+H+I+J+K+G+1.L+M+N+O+P+Q+R+S+T+y.>.T+y.y.",
"H y.B t U+<.V+L+W+X+Y+Z+`+ @.@Y++@@@#@$@-+%@&@L.H *@;+#+-+=@-@M.",
"x.y.B ;@O.m.@.@.@.>@j.>.,@m.'.4+I..+G.t.'@)@x.k.!@u+~@).G {@.+]@",
"x.y.B ^@/@(@_@:@<@}.7.L.8.Y+N+[@G.>@H t.l.q+U+C }@U+|@C '.}@W+1@",
"x.y.B 2@-+3@4@D+H 5@6@!@8+7@8@9@0@a@q+A+b@D C c@)@B d@B B B B B ",
"H y.B =.e@f@@.f@r+o.f@g@)@h@T.S.'@)@u+I.'.!.i@@.t+t+.+j@k@l@m.m@",
"H y.B n@o@_@p@q@U+r@s@t@u@v@w@x@y@x@z@b.A@B@C@D@H }@H c.E@F@J.C ",
"x.y.B S.u G@j.@.m.).m.y.H@I@h@@.J@w.@.!.).j.K@w.L@>.B >.M@v.T+r+",
"H y.B N@O@P@7.Q@R@q@7+I S@:.T@U@V@k.W@X@Y@W+8+Z@@+8+Y.X.N.`@F. #",
"x.y.B .#b+0.|.:@+#@###$#%#&#*#=#x.-#;#>#,#v+R.M.G@'#)#!#B B B B ",
"x.y.B u $.~#j.!.L@j.o.f@f@{#h@!.T.t+).]#K@l.T.^#/#s.]#$.(#_#T+y.",
"x.y.B :#<#/.[#}#t+|#o@/@1#2#3#A.4#5#6#|#,+7#8#T@n@@+@+9#0#a#b#c#",
"H y.B T.@.d#1@H !.K.u+P.e#v+ +~#f#g#h@~.-+#.h#K@B B B B B B B B ",
"H y.B h@i#t+7@c#j#k#x.m.}@t 7@P@l#U+a@e#m#]@+@$@L.7#I@K.n#o#-#:."};
