/* XPM */
static const char * settings_xpm[] = {
"32 32 257 2",
"  	c None",
". 	c #000000",
"+ 	c #000000",
"@ 	c #000000",
"# 	c #000000",
"$ 	c #000000",
"% 	c #000000",
"& 	c #000000",
"* 	c #000000",
"= 	c #000000",
"- 	c #000000",
"; 	c #000000",
"> 	c #000000",
", 	c #000000",
"' 	c #000000",
") 	c #000000",
"! 	c #000000",
"~ 	c #000000",
"{ 	c #000000",
"] 	c #000000",
"^ 	c #000000",
"/ 	c #000000",
"( 	c #000000",
"_ 	c #000000",
": 	c #000000",
"< 	c #000000",
"[ 	c #000000",
"} 	c #000000",
"| 	c #000000",
"1 	c #000000",
"2 	c #000000",
"3 	c #000000",
"4 	c #000000",
"5 	c #000000",
"6 	c #000000",
"7 	c #000000",
"8 	c #000000",
"9 	c #000000",
"0 	c #000000",
"a 	c #000000",
"b 	c #000000",
"c 	c #000000",
"d 	c #000033",
"e 	c #000066",
"f 	c #000099",
"g 	c #0000CC",
"h 	c #0000FF",
"i 	c #003300",
"j 	c #003333",
"k 	c #003366",
"l 	c #003399",
"m 	c #0033CC",
"n 	c #0033FF",
"o 	c #006600",
"p 	c #006633",
"q 	c #006666",
"r 	c #006699",
"s 	c #0066CC",
"t 	c #0066FF",
"u 	c #009900",
"v 	c #009933",
"w 	c #009966",
"x 	c #009999",
"y 	c #0099CC",
"z 	c #0099FF",
"A 	c #00CC00",
"B 	c #00CC33",
"C 	c #00CC66",
"D 	c #00CC99",
"E 	c #00CCCC",
"F 	c #00CCFF",
"G 	c #00FF00",
"H 	c #00FF33",
"I 	c #00FF66",
"J 	c #00FF99",
"K 	c #00FFCC",
"L 	c #00FFFF",
"M 	c #330000",
"N 	c #330033",
"O 	c #330066",
"P 	c #330099",
"Q 	c #3300CC",
"R 	c #3300FF",
"S 	c #333300",
"T 	c #333333",
"U 	c #333366",
"V 	c #333399",
"W 	c #3333CC",
"X 	c #3333FF",
"Y 	c #336600",
"Z 	c #336633",
"` 	c #336666",
" .	c #336699",
"..	c #3366CC",
"+.	c #3366FF",
"@.	c #339900",
"#.	c #339933",
"$.	c #339966",
"%.	c #339999",
"&.	c #3399CC",
"*.	c #3399FF",
"=.	c #33CC00",
"-.	c #33CC33",
";.	c #33CC66",
">.	c #33CC99",
",.	c #33CCCC",
"'.	c #33CCFF",
").	c #33FF00",
"!.	c #33FF33",
"~.	c #33FF66",
"{.	c #33FF99",
"].	c #33FFCC",
"^.	c #33FFFF",
"/.	c #660000",
"(.	c #660033",
"_.	c #660066",
":.	c #660099",
"<.	c #6600CC",
"[.	c #6600FF",
"}.	c #663300",
"|.	c #663333",
"1.	c #663366",
"2.	c #663399",
"3.	c #6633CC",
"4.	c #6633FF",
"5.	c #666600",
"6.	c #666633",
"7.	c #666666",
"8.	c #666699",
"9.	c #6666CC",
"0.	c #6666FF",
"a.	c #669900",
"b.	c #669933",
"c.	c #669966",
"d.	c #669999",
"e.	c #6699CC",
"f.	c #6699FF",
"g.	c #66CC00",
"h.	c #66CC33",
"i.	c #66CC66",
"j.	c #66CC99",
"k.	c #66CCCC",
"l.	c #66CCFF",
"m.	c #66FF00",
"n.	c #66FF33",
"o.	c #66FF66",
"p.	c #66FF99",
"q.	c #66FFCC",
"r.	c #66FFFF",
"s.	c #990000",
"t.	c #990033",
"u.	c #990066",
"v.	c #990099",
"w.	c #9900CC",
"x.	c #9900FF",
"y.	c #993300",
"z.	c #993333",
"A.	c #993366",
"B.	c #993399",
"C.	c #9933CC",
"D.	c #9933FF",
"E.	c #996600",
"F.	c #996633",
"G.	c #996666",
"H.	c #996699",
"I.	c #9966CC",
"J.	c #9966FF",
"K.	c #999900",
"L.	c #999933",
"M.	c #999966",
"N.	c #999999",
"O.	c #9999CC",
"P.	c #9999FF",
"Q.	c #99CC00",
"R.	c #99CC33",
"S.	c #99CC66",
"T.	c #99CC99",
"U.	c #99CCCC",
"V.	c #99CCFF",
"W.	c #99FF00",
"X.	c #99FF33",
"Y.	c #99FF66",
"Z.	c #99FF99",
"`.	c #99FFCC",
" +	c #99FFFF",
".+	c #CC0000",
"++	c #CC0033",
"@+	c #CC0066",
"#+	c #CC0099",
"$+	c #CC00CC",
"%+	c #CC00FF",
"&+	c #CC3300",
"*+	c #CC3333",
"=+	c #CC3366",
"-+	c #CC3399",
";+	c #CC33CC",
">+	c #CC33FF",
",+	c #CC6600",
"'+	c #CC6633",
")+	c #CC6666",
"!+	c #CC6699",
"~+	c #CC66CC",
"{+	c #CC66FF",
"]+	c #CC9900",
"^+	c #CC9933",
"/+	c #CC9966",
"(+	c #CC9999",
"_+	c #CC99CC",
":+	c #CC99FF",
"<+	c #CCCC00",
"[+	c #CCCC33",
"}+	c #CCCC66",
"|+	c #CCCC99",
"1+	c #CCCCCC",
"2+	c #CCCCFF",
"3+	c #CCFF00",
"4+	c #CCFF33",
"5+	c #CCFF66",
"6+	c #CCFF99",
"7+	c #CCFFCC",
"8+	c #CCFFFF",
"9+	c #FF0000",
"0+	c #FF0033",
"a+	c #FF0066",
"b+	c #FF0099",
"c+	c #FF00CC",
"d+	c #FF00FF",
"e+	c #FF3300",
"f+	c #FF3333",
"g+	c #FF3366",
"h+	c #FF3399",
"i+	c #FF33CC",
"j+	c #FF33FF",
"k+	c #FF6600",
"l+	c #FF6633",
"m+	c #FF6666",
"n+	c #FF6699",
"o+	c #FF66CC",
"p+	c #FF66FF",
"q+	c #FF9900",
"r+	c #FF9933",
"s+	c #FF9966",
"t+	c #FF9999",
"u+	c #FF99CC",
"v+	c #FF99FF",
"w+	c #FFCC00",
"x+	c #FFCC33",
"y+	c #FFCC66",
"z+	c #FFCC99",
"A+	c #FFCCCC",
"B+	c #FFCCFF",
"C+	c #FFFF00",
"D+	c #FFFF33",
"E+	c #FFFF66",
"F+	c #FFFF99",
"G+	c #FFFFCC",
"H+	c #FFFFFF",
"                                                                ",
"                            # # # #                             ",
"                            # # # #                             ",
"                            # # # #                             ",
"            #             # # # # #             #               ",
"          # # # #         # # # # #           # # #             ",
"        # # # # # #   # # # # # # # # # #   # # # # #           ",
"          # # # # # # # # # # # # # # # # # # # # # #           ",
"          # # # # # # # #             # # # # # # #             ",
"            # # # # #                     # # # #               ",
"              # # #       # # # # # #       # # #               ",
"            # # #       # # # # # # # #     # # #               ",
"            # # #     # # # # # # # # # #     # # #             ",
"        # # # #     # # # # #     # # # #     # # # # #         ",
"  # # # # # # #     # # # #         # # # #     # # # # # #     ",
"  # # # # # # #     # # #           # # # #     # # # # # #     ",
"  # # # # # # #     # # #           # # # #     # # # # # #     ",
"  # # # # # # #     # # # #         # # #     ] # # # # # #     ",
"            # #     # # # # # # # # # # #     # # #             ",
"            # # #     # # # # # # # # #       # # #             ",
"            # # #       # # # # # # #       # # #               ",
"            # # # #         # # #         # # # #               ",
"            # # # # # #                 # # # # # #             ",
"          # # # # # # # # #       ] # # # # # # # #             ",
"        # # # # # # # # # # # # # # # # # # # # # # #           ",
"          # # # #       # # # # # # # #     # # # # #           ",
"            # #           # # # # #             # #             ",
"                          # # # # #                             ",
"                            # # # #                             ",
"                            # # # #                             ",
"                                                                ",
"                                                                "};
